<svg class="main-svg" xmlns="http://www.w3.org/2000/svg" xmlns:xlink="http://www.w3.org/1999/xlink" width="3200" height="1000" style="" viewBox="0 0 3200 1000"><rect x="0" y="0" width="3200" height="1000" style="fill: rgb(255, 255, 255); fill-opacity: 1;"/><defs id="defs-011a27"><g class="clips"><clipPath id="clip011a27xyplot" class="plotclip"><rect width="760.0666666666667" height="820"/></clipPath><clipPath id="clip011a27x2y2plot" class="plotclip"><rect width="760.0666666666667" height="820"/></clipPath><clipPath id="clip011a27x3y3plot" class="plotclip"><rect width="760.0666666666666" height="820"/></clipPath><clipPath class="axesclip" id="clip011a27x"><rect x="80" y="0" width="760.0666666666667" height="1000"/></clipPath><clipPath class="axesclip" id="clip011a27y"><rect x="0" y="100" width="3200" height="820"/></clipPath><clipPath class="axesclip" id="clip011a27xy"><rect x="80" y="100" width="760.0666666666667" height="820"/></clipPath><clipPath class="axesclip" id="clip011a27y2"><rect x="0" y="100" width="3200" height="820"/></clipPath><clipPath class="axesclip" id="clip011a27xy2"><rect x="80" y="100" width="760.0666666666667" height="820"/></clipPath><clipPath class="axesclip" id="clip011a27y3"><rect x="0" y="100" width="3200" height="820"/></clipPath><clipPath class="axesclip" id="clip011a27xy3"><rect x="80" y="100" width="760.0666666666667" height="820"/></clipPath><clipPath class="axesclip" id="clip011a27x2"><rect x="1015.4666666666667" y="0" width="760.0666666666667" height="1000"/></clipPath><clipPath class="axesclip" id="clip011a27x2y"><rect x="1015.4666666666667" y="100" width="760.0666666666667" height="820"/></clipPath><clipPath class="axesclip" id="clip011a27x2y2"><rect x="1015.4666666666667" y="100" width="760.0666666666667" height="820"/></clipPath><clipPath class="axesclip" id="clip011a27x2y3"><rect x="1015.4666666666667" y="100" width="760.0666666666667" height="820"/></clipPath><clipPath class="axesclip" id="clip011a27x3"><rect x="1950.9333333333334" y="0" width="760.0666666666666" height="1000"/></clipPath><clipPath class="axesclip" id="clip011a27x3y"><rect x="1950.9333333333334" y="100" width="760.0666666666666" height="820"/></clipPath><clipPath class="axesclip" id="clip011a27x3y2"><rect x="1950.9333333333334" y="100" width="760.0666666666666" height="820"/></clipPath><clipPath class="axesclip" id="clip011a27x3y3"><rect x="1950.9333333333334" y="100" width="760.0666666666666" height="820"/></clipPath></g><g class="gradients"/></defs><g class="bglayer"/><g class="layer-below"><g class="imagelayer"/><g class="shapelayer"/></g><g class="cartesianlayer"><g class="subplot xy"><g class="layer-subplot"><g class="shapelayer"/><g class="imagelayer"/></g><g class="gridlayer"><g class="x"><path class="xgrid crisp" transform="translate(284.02,0)" d="M0,100v820" style="stroke: rgb(235, 240, 248); stroke-opacity: 1; stroke-width: 1px;"/><path class="xgrid crisp" transform="translate(443.79,0)" d="M0,100v820" style="stroke: rgb(235, 240, 248); stroke-opacity: 1; stroke-width: 1px;"/><path class="xgrid crisp" transform="translate(603.56,0)" d="M0,100v820" style="stroke: rgb(235, 240, 248); stroke-opacity: 1; stroke-width: 1px;"/><path class="xgrid crisp" transform="translate(763.33,0)" d="M0,100v820" style="stroke: rgb(235, 240, 248); stroke-opacity: 1; stroke-width: 1px;"/></g><g class="y"><path class="ygrid crisp" transform="translate(0,709.42)" d="M80,0h760.0666666666667" style="stroke: rgb(235, 240, 248); stroke-opacity: 1; stroke-width: 1px;"/><path class="ygrid crisp" transform="translate(0,546.1)" d="M80,0h760.0666666666667" style="stroke: rgb(235, 240, 248); stroke-opacity: 1; stroke-width: 1px;"/><path class="ygrid crisp" transform="translate(0,382.77)" d="M80,0h760.0666666666667" style="stroke: rgb(235, 240, 248); stroke-opacity: 1; stroke-width: 1px;"/><path class="ygrid crisp" transform="translate(0,219.45)" d="M80,0h760.0666666666667" style="stroke: rgb(235, 240, 248); stroke-opacity: 1; stroke-width: 1px;"/></g></g><g class="zerolinelayer"><path class="xzl zl crisp" transform="translate(124.25,0)" d="M0,100v820" style="stroke: rgb(235, 240, 248); stroke-opacity: 1; stroke-width: 2px;"/><path class="yzl zl crisp" transform="translate(0,872.75)" d="M80,0h760.0666666666667" style="stroke: rgb(235, 240, 248); stroke-opacity: 1; stroke-width: 2px;"/></g><path class="xlines-below"/><path class="ylines-below"/><g class="overlines-below"/><g class="xaxislayer-below"/><g class="yaxislayer-below"/><g class="overaxes-below"/><g class="plot" transform="translate(80,100)" clip-path="url('#clip011a27xyplot')"><g class="scatterlayer mlayer"><g class="trace scatter tracea772e1" style="stroke-miterlimit: 2; opacity: 1;"><g class="fills"/><g class="errorbars"/><g class="lines"/><g class="points"><path class="point" transform="translate(69.56,746.88)" d="M5,0A5,5 0 1,1 0,-5A5,5 0 0,1 5,0Z" style="opacity: 1; stroke-width: 0px; fill: rgb(211, 182, 131); fill-opacity: 1;"/></g><g class="text"/></g><g class="trace scatter trace177423" style="stroke-miterlimit: 2; opacity: 1;"><g class="fills"/><g class="errorbars"/><g class="lines"/><g class="points"><path class="point" transform="translate(44.25,772.75)" d="M5,0A5,5 0 1,1 0,-5A5,5 0 0,1 5,0Z" style="opacity: 1; stroke-width: 0px; fill: rgb(255, 252, 196); fill-opacity: 1;"/></g><g class="text"/></g><g class="trace scatter trace90ae01" style="stroke-miterlimit: 2; opacity: 1;"><g class="fills"/><g class="errorbars"/><g class="lines"/><g class="points"><path class="point" transform="translate(44.25,772.75)" d="M5,0A5,5 0 1,1 0,-5A5,5 0 0,1 5,0Z" style="opacity: 1; stroke-width: 0px; fill: rgb(67, 5, 65); fill-opacity: 1;"/></g><g class="text"/></g><g class="trace scatter trace58fd8b" style="stroke-miterlimit: 2; opacity: 1;"><g class="fills"/><g class="errorbars"/><g class="lines"/><g class="points"><path class="point" transform="translate(44.25,772.75)" d="M5,0A5,5 0 1,1 0,-5A5,5 0 0,1 5,0Z" style="opacity: 1; stroke-width: 0px; fill: rgb(255, 178, 208); fill-opacity: 1;"/></g><g class="text"/></g><g class="trace scatter trace5d120b" style="stroke-miterlimit: 2; opacity: 1;"><g class="fills"/><g class="errorbars"/><g class="lines"/><g class="points"><path class="point" transform="translate(694.99,107.52)" d="M5,0A5,5 0 1,1 0,-5A5,5 0 0,1 5,0Z" style="opacity: 1; stroke-width: 0px; fill: rgb(153, 117, 112); fill-opacity: 1;"/></g><g class="text"/></g><g class="trace scatter trace274933" style="stroke-miterlimit: 2; opacity: 1;"><g class="fills"/><g class="errorbars"/><g class="lines"/><g class="points"><path class="point" transform="translate(44.25,772.75)" d="M5,0A5,5 0 1,1 0,-5A5,5 0 0,1 5,0Z" style="opacity: 1; stroke-width: 0px; fill: rgb(173, 144, 13); fill-opacity: 1;"/></g><g class="text"/></g><g class="trace scatter trace77708d" style="stroke-miterlimit: 2; opacity: 1;"><g class="fills"/><g class="errorbars"/><g class="lines"/><g class="points"><path class="point" transform="translate(204.21,609.23)" d="M5,0A5,5 0 1,1 0,-5A5,5 0 0,1 5,0Z" style="opacity: 1; stroke-width: 0px; fill: rgb(196, 142, 253); fill-opacity: 1;"/></g><g class="text"/></g><g class="trace scatter trace4a10c6" style="stroke-miterlimit: 2; opacity: 1;"><g class="fills"/><g class="errorbars"/><g class="lines"/><g class="points"><path class="point" transform="translate(44.25,772.75)" d="M5,0A5,5 0 1,1 0,-5A5,5 0 0,1 5,0Z" style="opacity: 1; stroke-width: 0px; fill: rgb(80, 123, 156); fill-opacity: 1;"/></g><g class="text"/></g><g class="trace scatter traceed7e36" style="stroke-miterlimit: 2; opacity: 1;"><g class="fills"/><g class="errorbars"/><g class="lines"/><g class="points"><path class="point" transform="translate(44.25,772.75)" d="M5,0A5,5 0 1,1 0,-5A5,5 0 0,1 5,0Z" style="opacity: 1; stroke-width: 0px; fill: rgb(125, 113, 3); fill-opacity: 1;"/></g><g class="text"/></g><g class="trace scatter trace87ea50" style="stroke-miterlimit: 2; opacity: 1;"><g class="fills"/><g class="errorbars"/><g class="lines"/><g class="points"><path class="point" transform="translate(44.25,772.75)" d="M5,0A5,5 0 1,1 0,-5A5,5 0 0,1 5,0Z" style="opacity: 1; stroke-width: 0px; fill: rgb(255, 253, 120); fill-opacity: 1;"/></g><g class="text"/></g><g class="trace scatter traceb6a699" style="stroke-miterlimit: 2; opacity: 1;"><g class="fills"/><g class="errorbars"/><g class="lines"/><g class="points"><path class="point" transform="translate(73.68,742.67)" d="M5,0A5,5 0 1,1 0,-5A5,5 0 0,1 5,0Z" style="opacity: 1; stroke-width: 0px; fill: rgb(218, 70, 125); fill-opacity: 1;"/></g><g class="text"/></g><g class="trace scatter tracec48c13" style="stroke-miterlimit: 2; opacity: 1;"><g class="fills"/><g class="errorbars"/><g class="lines"><path class="js-line" d="M44.25,772.75L760.07,41" style="vector-effect: non-scaling-stroke; fill: none; stroke: rgb(0, 0, 0); stroke-opacity: 1; stroke-width: 0.5px; opacity: 1; stroke-dasharray: 9px, 9px;"/></g><g class="points"/><g class="text"/></g></g></g><g class="overplot"/><path class="xlines-above crisp" d="M0,0" style="fill: none;"/><path class="ylines-above crisp" d="M0,0" style="fill: none;"/><g class="overlines-above"/><g class="xaxislayer-above"><g class="xtick"><text text-anchor="middle" x="0" y="937" transform="translate(124.25,0)" style="font-family: 'Open Sans', verdana, arial, sans-serif; font-size: 16px; fill: rgb(42, 63, 95); fill-opacity: 1; white-space: pre;">0</text></g><g class="xtick"><text text-anchor="middle" x="0" y="937" transform="translate(284.02,0)" style="font-family: 'Open Sans', verdana, arial, sans-serif; font-size: 16px; fill: rgb(42, 63, 95); fill-opacity: 1; white-space: pre;">50</text></g><g class="xtick"><text text-anchor="middle" x="0" y="937" transform="translate(443.79,0)" style="font-family: 'Open Sans', verdana, arial, sans-serif; font-size: 16px; fill: rgb(42, 63, 95); fill-opacity: 1; white-space: pre;">100</text></g><g class="xtick"><text text-anchor="middle" x="0" y="937" transform="translate(603.56,0)" style="font-family: 'Open Sans', verdana, arial, sans-serif; font-size: 16px; fill: rgb(42, 63, 95); fill-opacity: 1; white-space: pre;">150</text></g><g class="xtick"><text text-anchor="middle" x="0" y="937" transform="translate(763.33,0)" style="font-family: 'Open Sans', verdana, arial, sans-serif; font-size: 16px; fill: rgb(42, 63, 95); fill-opacity: 1; white-space: pre;">200</text></g></g><g class="yaxislayer-above"><g class="ytick"><text text-anchor="end" x="79" y="5.6" transform="translate(0,872.75)" style="font-family: 'Open Sans', verdana, arial, sans-serif; font-size: 16px; fill: rgb(42, 63, 95); fill-opacity: 1; white-space: pre;">0</text></g><g class="ytick"><text text-anchor="end" x="79" y="5.6" transform="translate(0,709.42)" style="font-family: 'Open Sans', verdana, arial, sans-serif; font-size: 16px; fill: rgb(42, 63, 95); fill-opacity: 1; white-space: pre;">50</text></g><g class="ytick"><text text-anchor="end" x="79" y="5.6" transform="translate(0,546.1)" style="font-family: 'Open Sans', verdana, arial, sans-serif; font-size: 16px; fill: rgb(42, 63, 95); fill-opacity: 1; white-space: pre;">100</text></g><g class="ytick"><text text-anchor="end" x="79" y="5.6" transform="translate(0,382.77)" style="font-family: 'Open Sans', verdana, arial, sans-serif; font-size: 16px; fill: rgb(42, 63, 95); fill-opacity: 1; white-space: pre;">150</text></g><g class="ytick"><text text-anchor="end" x="79" y="5.6" transform="translate(0,219.45)" style="font-family: 'Open Sans', verdana, arial, sans-serif; font-size: 16px; fill: rgb(42, 63, 95); fill-opacity: 1; white-space: pre;">200</text></g></g><g class="overaxes-above"/></g><g class="subplot x2y2"><g class="layer-subplot"><g class="shapelayer"/><g class="imagelayer"/></g><g class="gridlayer"><g class="x2"><path class="x2grid crisp" transform="translate(1138.5266666666666,0)" d="M0,100v820" style="stroke: rgb(235, 240, 248); stroke-opacity: 1; stroke-width: 1px;"/><path class="x2grid crisp" transform="translate(1217.3366666666666,0)" d="M0,100v820" style="stroke: rgb(235, 240, 248); stroke-opacity: 1; stroke-width: 1px;"/><path class="x2grid crisp" transform="translate(1296.1566666666668,0)" d="M0,100v820" style="stroke: rgb(235, 240, 248); stroke-opacity: 1; stroke-width: 1px;"/><path class="x2grid crisp" transform="translate(1374.9666666666667,0)" d="M0,100v820" style="stroke: rgb(235, 240, 248); stroke-opacity: 1; stroke-width: 1px;"/><path class="x2grid crisp" transform="translate(1453.7766666666666,0)" d="M0,100v820" style="stroke: rgb(235, 240, 248); stroke-opacity: 1; stroke-width: 1px;"/><path class="x2grid crisp" transform="translate(1532.5866666666666,0)" d="M0,100v820" style="stroke: rgb(235, 240, 248); stroke-opacity: 1; stroke-width: 1px;"/><path class="x2grid crisp" transform="translate(1611.3966666666665,0)" d="M0,100v820" style="stroke: rgb(235, 240, 248); stroke-opacity: 1; stroke-width: 1px;"/><path class="x2grid crisp" transform="translate(1690.2066666666667,0)" d="M0,100v820" style="stroke: rgb(235, 240, 248); stroke-opacity: 1; stroke-width: 1px;"/><path class="x2grid crisp" transform="translate(1769.0166666666667,0)" d="M0,100v820" style="stroke: rgb(235, 240, 248); stroke-opacity: 1; stroke-width: 1px;"/></g><g class="y2"><path class="y2grid crisp" transform="translate(0,711.62)" d="M1015.4666666666667,0h760.0666666666667" style="stroke: rgb(235, 240, 248); stroke-opacity: 1; stroke-width: 1px;"/><path class="y2grid crisp" transform="translate(0,550.49)" d="M1015.4666666666667,0h760.0666666666667" style="stroke: rgb(235, 240, 248); stroke-opacity: 1; stroke-width: 1px;"/><path class="y2grid crisp" transform="translate(0,389.36)" d="M1015.4666666666667,0h760.0666666666667" style="stroke: rgb(235, 240, 248); stroke-opacity: 1; stroke-width: 1px;"/><path class="y2grid crisp" transform="translate(0,228.23)" d="M1015.4666666666667,0h760.0666666666667" style="stroke: rgb(235, 240, 248); stroke-opacity: 1; stroke-width: 1px;"/></g></g><g class="zerolinelayer"><path class="x2zl zl crisp" transform="translate(1059.7166666666667,0)" d="M0,100v820" style="stroke: rgb(235, 240, 248); stroke-opacity: 1; stroke-width: 2px;"/><path class="y2zl zl crisp" transform="translate(0,872.75)" d="M1015.4666666666667,0h760.0666666666667" style="stroke: rgb(235, 240, 248); stroke-opacity: 1; stroke-width: 2px;"/></g><path class="xlines-below"/><path class="ylines-below"/><g class="overlines-below"/><g class="xaxislayer-below"/><g class="yaxislayer-below"/><g class="overaxes-below"/><g class="plot" transform="translate(1015.4666666666667,100)" clip-path="url('#clip011a27x2y2plot')"><g class="scatterlayer mlayer"><g class="trace scatter trace243966" style="stroke-miterlimit: 2; opacity: 1;"><g class="fills"/><g class="errorbars"/><g class="lines"/><g class="points"><path class="point" transform="translate(106.67,708.94)" d="M5,0A5,5 0 1,1 0,-5A5,5 0 0,1 5,0Z" style="opacity: 1; stroke-width: 0px; fill: rgb(211, 182, 131); fill-opacity: 1;"/></g><g class="text"/></g><g class="trace scatter tracefb59b5" style="stroke-miterlimit: 2; opacity: 1;"><g class="fills"/><g class="errorbars"/><g class="lines"/><g class="points"><path class="point" transform="translate(44.25,772.75)" d="M5,0A5,5 0 1,1 0,-5A5,5 0 0,1 5,0Z" style="opacity: 1; stroke-width: 0px; fill: rgb(255, 252, 196); fill-opacity: 1;"/></g><g class="text"/></g><g class="trace scatter trace98801c" style="stroke-miterlimit: 2; opacity: 1;"><g class="fills"/><g class="errorbars"/><g class="lines"/><g class="points"><path class="point" transform="translate(44.25,772.75)" d="M5,0A5,5 0 1,1 0,-5A5,5 0 0,1 5,0Z" style="opacity: 1; stroke-width: 0px; fill: rgb(67, 5, 65); fill-opacity: 1;"/></g><g class="text"/></g><g class="trace scatter trace049257" style="stroke-miterlimit: 2; opacity: 1;"><g class="fills"/><g class="errorbars"/><g class="lines"/><g class="points"><path class="point" transform="translate(44.25,772.75)" d="M5,0A5,5 0 1,1 0,-5A5,5 0 0,1 5,0Z" style="opacity: 1; stroke-width: 0px; fill: rgb(255, 178, 208); fill-opacity: 1;"/></g><g class="text"/></g><g class="trace scatter trace3ba7f9" style="stroke-miterlimit: 2; opacity: 1;"><g class="fills"/><g class="errorbars"/><g class="lines"/><g class="points"><path class="point" transform="translate(694.91,107.52)" d="M5,0A5,5 0 1,1 0,-5A5,5 0 0,1 5,0Z" style="opacity: 1; stroke-width: 0px; fill: rgb(153, 117, 112); fill-opacity: 1;"/></g><g class="text"/></g><g class="trace scatter traced92ac6" style="stroke-miterlimit: 2; opacity: 1;"><g class="fills"/><g class="errorbars"/><g class="lines"/><g class="points"><path class="point" transform="translate(44.25,772.75)" d="M5,0A5,5 0 1,1 0,-5A5,5 0 0,1 5,0Z" style="opacity: 1; stroke-width: 0px; fill: rgb(173, 144, 13); fill-opacity: 1;"/></g><g class="text"/></g><g class="trace scatter traceec49d2" style="stroke-miterlimit: 2; opacity: 1;"><g class="fills"/><g class="errorbars"/><g class="lines"/><g class="points"><path class="point" transform="translate(438.31,369.92)" d="M5,0A5,5 0 1,1 0,-5A5,5 0 0,1 5,0Z" style="opacity: 1; stroke-width: 0px; fill: rgb(196, 142, 253); fill-opacity: 1;"/></g><g class="text"/></g><g class="trace scatter trace583a15" style="stroke-miterlimit: 2; opacity: 1;"><g class="fills"/><g class="errorbars"/><g class="lines"/><g class="points"><path class="point" transform="translate(44.25,772.75)" d="M5,0A5,5 0 1,1 0,-5A5,5 0 0,1 5,0Z" style="opacity: 1; stroke-width: 0px; fill: rgb(80, 123, 156); fill-opacity: 1;"/></g><g class="text"/></g><g class="trace scatter tracef7d34e" style="stroke-miterlimit: 2; opacity: 1;"><g class="fills"/><g class="errorbars"/><g class="lines"/><g class="points"><path class="point" transform="translate(44.25,772.75)" d="M5,0A5,5 0 1,1 0,-5A5,5 0 0,1 5,0Z" style="opacity: 1; stroke-width: 0px; fill: rgb(125, 113, 3); fill-opacity: 1;"/></g><g class="text"/></g><g class="trace scatter trace963446" style="stroke-miterlimit: 2; opacity: 1;"><g class="fills"/><g class="errorbars"/><g class="lines"/><g class="points"><path class="point" transform="translate(44.25,772.75)" d="M5,0A5,5 0 1,1 0,-5A5,5 0 0,1 5,0Z" style="opacity: 1; stroke-width: 0px; fill: rgb(255, 253, 120); fill-opacity: 1;"/></g><g class="text"/></g><g class="trace scatter trace7923e1" style="stroke-miterlimit: 2; opacity: 1;"><g class="fills"/><g class="errorbars"/><g class="lines"/><g class="points"><path class="point" transform="translate(116.84,698.55)" d="M5,0A5,5 0 1,1 0,-5A5,5 0 0,1 5,0Z" style="opacity: 1; stroke-width: 0px; fill: rgb(218, 70, 125); fill-opacity: 1;"/></g><g class="text"/></g><g class="trace scatter trace986b28" style="stroke-miterlimit: 2; opacity: 1;"><g class="fills"/><g class="errorbars"/><g class="lines"><path class="js-line" d="M44.25,772.75L760.07,41" style="vector-effect: non-scaling-stroke; fill: none; stroke: rgb(0, 0, 0); stroke-opacity: 1; stroke-width: 0.5px; opacity: 1; stroke-dasharray: 9px, 9px;"/></g><g class="points"/><g class="text"/></g></g></g><g class="overplot"/><path class="xlines-above crisp" d="M0,0" style="fill: none;"/><path class="ylines-above crisp" d="M0,0" style="fill: none;"/><g class="overlines-above"/><g class="xaxislayer-above"><g class="x2tick"><text text-anchor="middle" x="0" y="937" transform="translate(1059.7166666666667,0)" style="font-family: 'Open Sans', verdana, arial, sans-serif; font-size: 16px; fill: rgb(42, 63, 95); fill-opacity: 1; white-space: pre;">0</text></g><g class="x2tick"><text text-anchor="middle" x="0" y="937" transform="translate(1138.5266666666666,0)" style="font-family: 'Open Sans', verdana, arial, sans-serif; font-size: 16px; fill: rgb(42, 63, 95); fill-opacity: 1; white-space: pre;">10</text></g><g class="x2tick"><text text-anchor="middle" x="0" y="937" transform="translate(1217.3366666666666,0)" style="font-family: 'Open Sans', verdana, arial, sans-serif; font-size: 16px; fill: rgb(42, 63, 95); fill-opacity: 1; white-space: pre;">20</text></g><g class="x2tick"><text text-anchor="middle" x="0" y="937" transform="translate(1296.1566666666668,0)" style="font-family: 'Open Sans', verdana, arial, sans-serif; font-size: 16px; fill: rgb(42, 63, 95); fill-opacity: 1; white-space: pre;">30</text></g><g class="x2tick"><text text-anchor="middle" x="0" y="937" transform="translate(1374.9666666666667,0)" style="font-family: 'Open Sans', verdana, arial, sans-serif; font-size: 16px; fill: rgb(42, 63, 95); fill-opacity: 1; white-space: pre;">40</text></g><g class="x2tick"><text text-anchor="middle" x="0" y="937" transform="translate(1453.7766666666666,0)" style="font-family: 'Open Sans', verdana, arial, sans-serif; font-size: 16px; fill: rgb(42, 63, 95); fill-opacity: 1; white-space: pre;">50</text></g><g class="x2tick"><text text-anchor="middle" x="0" y="937" transform="translate(1532.5866666666666,0)" style="font-family: 'Open Sans', verdana, arial, sans-serif; font-size: 16px; fill: rgb(42, 63, 95); fill-opacity: 1; white-space: pre;">60</text></g><g class="x2tick"><text text-anchor="middle" x="0" y="937" transform="translate(1611.3966666666665,0)" style="font-family: 'Open Sans', verdana, arial, sans-serif; font-size: 16px; fill: rgb(42, 63, 95); fill-opacity: 1; white-space: pre;">70</text></g><g class="x2tick"><text text-anchor="middle" x="0" y="937" transform="translate(1690.2066666666667,0)" style="font-family: 'Open Sans', verdana, arial, sans-serif; font-size: 16px; fill: rgb(42, 63, 95); fill-opacity: 1; white-space: pre;">80</text></g><g class="x2tick"><text text-anchor="middle" x="0" y="937" transform="translate(1769.0166666666667,0)" style="font-family: 'Open Sans', verdana, arial, sans-serif; font-size: 16px; fill: rgb(42, 63, 95); fill-opacity: 1; white-space: pre;">90</text></g></g><g class="yaxislayer-above"><g class="y2tick"><text text-anchor="end" x="1014.4666666666667" y="5.6" transform="translate(0,872.75)" style="font-family: 'Open Sans', verdana, arial, sans-serif; font-size: 16px; fill: rgb(42, 63, 95); fill-opacity: 1; white-space: pre;">0</text></g><g class="y2tick"><text text-anchor="end" x="1014.4666666666667" y="5.6" transform="translate(0,711.62)" style="font-family: 'Open Sans', verdana, arial, sans-serif; font-size: 16px; fill: rgb(42, 63, 95); fill-opacity: 1; white-space: pre;">20</text></g><g class="y2tick"><text text-anchor="end" x="1014.4666666666667" y="5.6" transform="translate(0,550.49)" style="font-family: 'Open Sans', verdana, arial, sans-serif; font-size: 16px; fill: rgb(42, 63, 95); fill-opacity: 1; white-space: pre;">40</text></g><g class="y2tick"><text text-anchor="end" x="1014.4666666666667" y="5.6" transform="translate(0,389.36)" style="font-family: 'Open Sans', verdana, arial, sans-serif; font-size: 16px; fill: rgb(42, 63, 95); fill-opacity: 1; white-space: pre;">60</text></g><g class="y2tick"><text text-anchor="end" x="1014.4666666666667" y="5.6" transform="translate(0,228.23)" style="font-family: 'Open Sans', verdana, arial, sans-serif; font-size: 16px; fill: rgb(42, 63, 95); fill-opacity: 1; white-space: pre;">80</text></g></g><g class="overaxes-above"/></g><g class="subplot x3y3"><g class="layer-subplot"><g class="shapelayer"/><g class="imagelayer"/></g><g class="gridlayer"><g class="x3"><path class="x3grid crisp" transform="translate(2113.5233333333335,0)" d="M0,100v820" style="stroke: rgb(235, 240, 248); stroke-opacity: 1; stroke-width: 1px;"/><path class="x3grid crisp" transform="translate(2231.8633333333332,0)" d="M0,100v820" style="stroke: rgb(235, 240, 248); stroke-opacity: 1; stroke-width: 1px;"/><path class="x3grid crisp" transform="translate(2350.2033333333334,0)" d="M0,100v820" style="stroke: rgb(235, 240, 248); stroke-opacity: 1; stroke-width: 1px;"/><path class="x3grid crisp" transform="translate(2468.5333333333333,0)" d="M0,100v820" style="stroke: rgb(235, 240, 248); stroke-opacity: 1; stroke-width: 1px;"/><path class="x3grid crisp" transform="translate(2586.8733333333334,0)" d="M0,100v820" style="stroke: rgb(235, 240, 248); stroke-opacity: 1; stroke-width: 1px;"/><path class="x3grid crisp" transform="translate(2705.213333333333,0)" d="M0,100v820" style="stroke: rgb(235, 240, 248); stroke-opacity: 1; stroke-width: 1px;"/></g><g class="y3"><path class="y3grid crisp" transform="translate(0,751.78)" d="M1950.9333333333334,0h760.0666666666666" style="stroke: rgb(235, 240, 248); stroke-opacity: 1; stroke-width: 1px;"/><path class="y3grid crisp" transform="translate(0,630.81)" d="M1950.9333333333334,0h760.0666666666666" style="stroke: rgb(235, 240, 248); stroke-opacity: 1; stroke-width: 1px;"/><path class="y3grid crisp" transform="translate(0,509.83)" d="M1950.9333333333334,0h760.0666666666666" style="stroke: rgb(235, 240, 248); stroke-opacity: 1; stroke-width: 1px;"/><path class="y3grid crisp" transform="translate(0,388.86)" d="M1950.9333333333334,0h760.0666666666666" style="stroke: rgb(235, 240, 248); stroke-opacity: 1; stroke-width: 1px;"/><path class="y3grid crisp" transform="translate(0,267.89)" d="M1950.9333333333334,0h760.0666666666666" style="stroke: rgb(235, 240, 248); stroke-opacity: 1; stroke-width: 1px;"/><path class="y3grid crisp" transform="translate(0,146.92000000000002)" d="M1950.9333333333334,0h760.0666666666666" style="stroke: rgb(235, 240, 248); stroke-opacity: 1; stroke-width: 1px;"/></g></g><g class="zerolinelayer"><path class="x3zl zl crisp" transform="translate(1995.1833333333334,0)" d="M0,100v820" style="stroke: rgb(235, 240, 248); stroke-opacity: 1; stroke-width: 2px;"/><path class="y3zl zl crisp" transform="translate(0,872.75)" d="M1950.9333333333334,0h760.0666666666666" style="stroke: rgb(235, 240, 248); stroke-opacity: 1; stroke-width: 2px;"/></g><path class="xlines-below"/><path class="ylines-below"/><g class="overlines-below"/><g class="xaxislayer-below"/><g class="yaxislayer-below"/><g class="overaxes-below"/><g class="plot" transform="translate(1950.9333333333334,100)" clip-path="url('#clip011a27x3y3plot')"><g class="scatterlayer mlayer"><g class="trace scatter tracea52f07" style="stroke-miterlimit: 2; opacity: 1;"><g class="fills"/><g class="errorbars"/><g class="lines"/><g class="points"><path class="point" transform="translate(137.98,676.94)" d="M5,0A5,5 0 1,1 0,-5A5,5 0 0,1 5,0Z" style="opacity: 1; stroke-width: 0px; fill: rgb(211, 182, 131); fill-opacity: 1;"/></g><g class="text"/></g><g class="trace scatter trace32867e" style="stroke-miterlimit: 2; opacity: 1;"><g class="fills"/><g class="errorbars"/><g class="lines"/><g class="points"><path class="point" transform="translate(44.25,772.75)" d="M5,0A5,5 0 1,1 0,-5A5,5 0 0,1 5,0Z" style="opacity: 1; stroke-width: 0px; fill: rgb(255, 252, 196); fill-opacity: 1;"/></g><g class="text"/></g><g class="trace scatter tracefb8b0e" style="stroke-miterlimit: 2; opacity: 1;"><g class="fills"/><g class="errorbars"/><g class="lines"/><g class="points"><path class="point" transform="translate(44.25,772.75)" d="M5,0A5,5 0 1,1 0,-5A5,5 0 0,1 5,0Z" style="opacity: 1; stroke-width: 0px; fill: rgb(67, 5, 65); fill-opacity: 1;"/></g><g class="text"/></g><g class="trace scatter traced478f2" style="stroke-miterlimit: 2; opacity: 1;"><g class="fills"/><g class="errorbars"/><g class="lines"/><g class="points"><path class="point" transform="translate(44.25,772.75)" d="M5,0A5,5 0 1,1 0,-5A5,5 0 0,1 5,0Z" style="opacity: 1; stroke-width: 0px; fill: rgb(255, 178, 208); fill-opacity: 1;"/></g><g class="text"/></g><g class="trace scatter tracee5f66a" style="stroke-miterlimit: 2; opacity: 1;"><g class="fills"/><g class="errorbars"/><g class="lines"/><g class="points"><path class="point" transform="translate(694.99,107.52)" d="M5,0A5,5 0 1,1 0,-5A5,5 0 0,1 5,0Z" style="opacity: 1; stroke-width: 0px; fill: rgb(153, 117, 112); fill-opacity: 1;"/></g><g class="text"/></g><g class="trace scatter trace693ee2" style="stroke-miterlimit: 2; opacity: 1;"><g class="fills"/><g class="errorbars"/><g class="lines"/><g class="points"><path class="point" transform="translate(44.25,772.75)" d="M5,0A5,5 0 1,1 0,-5A5,5 0 0,1 5,0Z" style="opacity: 1; stroke-width: 0px; fill: rgb(173, 144, 13); fill-opacity: 1;"/></g><g class="text"/></g><g class="trace scatter trace329562" style="stroke-miterlimit: 2; opacity: 1;"><g class="fills"/><g class="errorbars"/><g class="lines"/><g class="points"><path class="point" transform="translate(635.71,168.13)" d="M5,0A5,5 0 1,1 0,-5A5,5 0 0,1 5,0Z" style="opacity: 1; stroke-width: 0px; fill: rgb(196, 142, 253); fill-opacity: 1;"/></g><g class="text"/></g><g class="trace scatter traceb9ba99" style="stroke-miterlimit: 2; opacity: 1;"><g class="fills"/><g class="errorbars"/><g class="lines"/><g class="points"><path class="point" transform="translate(44.25,772.75)" d="M5,0A5,5 0 1,1 0,-5A5,5 0 0,1 5,0Z" style="opacity: 1; stroke-width: 0px; fill: rgb(80, 123, 156); fill-opacity: 1;"/></g><g class="text"/></g><g class="trace scatter trace07a552" style="stroke-miterlimit: 2; opacity: 1;"><g class="fills"/><g class="errorbars"/><g class="lines"/><g class="points"><path class="point" transform="translate(44.25,772.75)" d="M5,0A5,5 0 1,1 0,-5A5,5 0 0,1 5,0Z" style="opacity: 1; stroke-width: 0px; fill: rgb(125, 113, 3); fill-opacity: 1;"/></g><g class="text"/></g><g class="trace scatter trace12e133" style="stroke-miterlimit: 2; opacity: 1;"><g class="fills"/><g class="errorbars"/><g class="lines"/><g class="points"><path class="point" transform="translate(44.25,772.75)" d="M5,0A5,5 0 1,1 0,-5A5,5 0 0,1 5,0Z" style="opacity: 1; stroke-width: 0px; fill: rgb(255, 253, 120); fill-opacity: 1;"/></g><g class="text"/></g><g class="trace scatter tracef9c9bd" style="stroke-miterlimit: 2; opacity: 1;"><g class="fills"/><g class="errorbars"/><g class="lines"/><g class="points"><path class="point" transform="translate(153.24,661.33)" d="M5,0A5,5 0 1,1 0,-5A5,5 0 0,1 5,0Z" style="opacity: 1; stroke-width: 0px; fill: rgb(218, 70, 125); fill-opacity: 1;"/></g><g class="text"/></g><g class="trace scatter trace135155" style="stroke-miterlimit: 2; opacity: 1;"><g class="fills"/><g class="errorbars"/><g class="lines"><path class="js-line" d="M44.25,772.75L760.07,41" style="vector-effect: non-scaling-stroke; fill: none; stroke: rgb(0, 0, 0); stroke-opacity: 1; stroke-width: 0.5px; opacity: 1; stroke-dasharray: 9px, 9px;"/></g><g class="points"/><g class="text"/></g></g></g><g class="overplot"/><path class="xlines-above crisp" d="M0,0" style="fill: none;"/><path class="ylines-above crisp" d="M0,0" style="fill: none;"/><g class="overlines-above"/><g class="xaxislayer-above"><g class="x3tick"><text text-anchor="middle" x="0" y="937" transform="translate(1995.1833333333334,0)" style="font-family: 'Open Sans', verdana, arial, sans-serif; font-size: 16px; fill: rgb(42, 63, 95); fill-opacity: 1; white-space: pre;">0</text></g><g class="x3tick"><text text-anchor="middle" x="0" y="937" transform="translate(2113.5233333333335,0)" style="font-family: 'Open Sans', verdana, arial, sans-serif; font-size: 16px; fill: rgb(42, 63, 95); fill-opacity: 1; white-space: pre;">10</text></g><g class="x3tick"><text text-anchor="middle" x="0" y="937" transform="translate(2231.8633333333332,0)" style="font-family: 'Open Sans', verdana, arial, sans-serif; font-size: 16px; fill: rgb(42, 63, 95); fill-opacity: 1; white-space: pre;">20</text></g><g class="x3tick"><text text-anchor="middle" x="0" y="937" transform="translate(2350.2033333333334,0)" style="font-family: 'Open Sans', verdana, arial, sans-serif; font-size: 16px; fill: rgb(42, 63, 95); fill-opacity: 1; white-space: pre;">30</text></g><g class="x3tick"><text text-anchor="middle" x="0" y="937" transform="translate(2468.5333333333333,0)" style="font-family: 'Open Sans', verdana, arial, sans-serif; font-size: 16px; fill: rgb(42, 63, 95); fill-opacity: 1; white-space: pre;">40</text></g><g class="x3tick"><text text-anchor="middle" x="0" y="937" transform="translate(2586.8733333333334,0)" style="font-family: 'Open Sans', verdana, arial, sans-serif; font-size: 16px; fill: rgb(42, 63, 95); fill-opacity: 1; white-space: pre;">50</text></g><g class="x3tick"><text text-anchor="middle" x="0" y="937" transform="translate(2705.213333333333,0)" style="font-family: 'Open Sans', verdana, arial, sans-serif; font-size: 16px; fill: rgb(42, 63, 95); fill-opacity: 1; white-space: pre;">60</text></g></g><g class="yaxislayer-above"><g class="y3tick"><text text-anchor="end" x="1949.9333333333334" y="5.6" transform="translate(0,872.75)" style="font-family: 'Open Sans', verdana, arial, sans-serif; font-size: 16px; fill: rgb(42, 63, 95); fill-opacity: 1; white-space: pre;">0</text></g><g class="y3tick"><text text-anchor="end" x="1949.9333333333334" y="5.6" transform="translate(0,751.78)" style="font-family: 'Open Sans', verdana, arial, sans-serif; font-size: 16px; fill: rgb(42, 63, 95); fill-opacity: 1; white-space: pre;">10</text></g><g class="y3tick"><text text-anchor="end" x="1949.9333333333334" y="5.6" transform="translate(0,630.81)" style="font-family: 'Open Sans', verdana, arial, sans-serif; font-size: 16px; fill: rgb(42, 63, 95); fill-opacity: 1; white-space: pre;">20</text></g><g class="y3tick"><text text-anchor="end" x="1949.9333333333334" y="5.6" transform="translate(0,509.83)" style="font-family: 'Open Sans', verdana, arial, sans-serif; font-size: 16px; fill: rgb(42, 63, 95); fill-opacity: 1; white-space: pre;">30</text></g><g class="y3tick"><text text-anchor="end" x="1949.9333333333334" y="5.6" transform="translate(0,388.86)" style="font-family: 'Open Sans', verdana, arial, sans-serif; font-size: 16px; fill: rgb(42, 63, 95); fill-opacity: 1; white-space: pre;">40</text></g><g class="y3tick"><text text-anchor="end" x="1949.9333333333334" y="5.6" transform="translate(0,267.89)" style="font-family: 'Open Sans', verdana, arial, sans-serif; font-size: 16px; fill: rgb(42, 63, 95); fill-opacity: 1; white-space: pre;">50</text></g><g class="y3tick"><text text-anchor="end" x="1949.9333333333334" y="5.6" transform="translate(0,146.92000000000002)" style="font-family: 'Open Sans', verdana, arial, sans-serif; font-size: 16px; fill: rgb(42, 63, 95); fill-opacity: 1; white-space: pre;">60</text></g></g><g class="overaxes-above"/></g></g><g class="polarlayer"/><g class="ternarylayer"/><g class="geolayer"/><g class="funnelarealayer"/><g class="pielayer"/><g class="treemaplayer"/><g class="sunburstlayer"/><g class="glimages"/><defs id="topdefs-011a27"><g class="clips"/><clipPath id="legend011a27"><rect width="424" height="372" x="0" y="0"/></clipPath></defs><g class="layer-above"><g class="imagelayer"/><g class="shapelayer"/></g><g class="infolayer"><g class="legend" pointer-events="all" transform="translate(2763.62,100)"><rect class="bg" shape-rendering="crispEdges" style="stroke: rgb(68, 68, 68); stroke-opacity: 1; fill: rgb(255, 255, 255); fill-opacity: 1; stroke-width: 0px;" width="424" height="372" x="0" y="0"/><g class="scrollbox" transform="" clip-path="url('#legend011a27')"><g class="groups" transform=""><g class="traces" transform="translate(0,16.9)" style="opacity: 1;"><text class="legendtext" text-anchor="start" x="40" y="6.24" style="font-family: 'Open Sans', verdana, arial, sans-serif; font-size: 16px; fill: rgb(42, 63, 95); fill-opacity: 1; white-space: pre;">end_use_natural_gas_clothes_dryer_m_btu</text><g class="layers" style="opacity: 1;"><g class="legendfill"/><g class="legendlines"/><g class="legendsymbols"><g class="legendpoints"><path class="scatterpts" transform="translate(20,0)" d="M5,0A5,5 0 1,1 0,-5A5,5 0 0,1 5,0Z" style="opacity: 1; stroke-width: 0px; fill: rgb(211, 182, 131); fill-opacity: 1;"/></g></g></g><rect class="legendtoggle" x="0" y="-11.9" width="418.953125" height="23.8" style="fill: rgb(0, 0, 0); fill-opacity: 0;"/></g></g><g class="groups" transform="translate(0,10)"><g class="traces" transform="translate(0,40.7)" style="opacity: 1;"><text class="legendtext" text-anchor="start" x="40" y="6.24" style="font-family: 'Open Sans', verdana, arial, sans-serif; font-size: 16px; fill: rgb(42, 63, 95); fill-opacity: 1; white-space: pre;">end_use_natural_gas_fireplace_m_btu</text><g class="layers" style="opacity: 1;"><g class="legendfill"/><g class="legendlines"/><g class="legendsymbols"><g class="legendpoints"><path class="scatterpts" transform="translate(20,0)" d="M5,0A5,5 0 1,1 0,-5A5,5 0 0,1 5,0Z" style="opacity: 1; stroke-width: 0px; fill: rgb(255, 252, 196); fill-opacity: 1;"/></g></g></g><rect class="legendtoggle" x="0" y="-11.9" width="418.953125" height="23.8" style="fill: rgb(0, 0, 0); fill-opacity: 0;"/></g></g><g class="groups" transform="translate(0,20)"><g class="traces" transform="translate(0,64.5)" style="opacity: 1;"><text class="legendtext" text-anchor="start" x="40" y="6.24" style="font-family: 'Open Sans', verdana, arial, sans-serif; font-size: 16px; fill: rgb(42, 63, 95); fill-opacity: 1; white-space: pre;">end_use_natural_gas_generator_m_btu</text><g class="layers" style="opacity: 1;"><g class="legendfill"/><g class="legendlines"/><g class="legendsymbols"><g class="legendpoints"><path class="scatterpts" transform="translate(20,0)" d="M5,0A5,5 0 1,1 0,-5A5,5 0 0,1 5,0Z" style="opacity: 1; stroke-width: 0px; fill: rgb(67, 5, 65); fill-opacity: 1;"/></g></g></g><rect class="legendtoggle" x="0" y="-11.9" width="418.953125" height="23.8" style="fill: rgb(0, 0, 0); fill-opacity: 0;"/></g></g><g class="groups" transform="translate(0,30)"><g class="traces" transform="translate(0,88.30000000000001)" style="opacity: 1;"><text class="legendtext" text-anchor="start" x="40" y="6.24" style="font-family: 'Open Sans', verdana, arial, sans-serif; font-size: 16px; fill: rgb(42, 63, 95); fill-opacity: 1; white-space: pre;">end_use_natural_gas_grill_m_btu</text><g class="layers" style="opacity: 1;"><g class="legendfill"/><g class="legendlines"/><g class="legendsymbols"><g class="legendpoints"><path class="scatterpts" transform="translate(20,0)" d="M5,0A5,5 0 1,1 0,-5A5,5 0 0,1 5,0Z" style="opacity: 1; stroke-width: 0px; fill: rgb(255, 178, 208); fill-opacity: 1;"/></g></g></g><rect class="legendtoggle" x="0" y="-11.9" width="418.953125" height="23.8" style="fill: rgb(0, 0, 0); fill-opacity: 0;"/></g></g><g class="groups" transform="translate(0,40)"><g class="traces" transform="translate(0,112.10000000000001)" style="opacity: 1;"><text class="legendtext" text-anchor="start" x="40" y="6.24" style="font-family: 'Open Sans', verdana, arial, sans-serif; font-size: 16px; fill: rgb(42, 63, 95); fill-opacity: 1; white-space: pre;">end_use_natural_gas_heating_m_btu</text><g class="layers" style="opacity: 1;"><g class="legendfill"/><g class="legendlines"/><g class="legendsymbols"><g class="legendpoints"><path class="scatterpts" transform="translate(20,0)" d="M5,0A5,5 0 1,1 0,-5A5,5 0 0,1 5,0Z" style="opacity: 1; stroke-width: 0px; fill: rgb(153, 117, 112); fill-opacity: 1;"/></g></g></g><rect class="legendtoggle" x="0" y="-11.9" width="418.953125" height="23.8" style="fill: rgb(0, 0, 0); fill-opacity: 0;"/></g></g><g class="groups" transform="translate(0,50)"><g class="traces" transform="translate(0,135.9)" style="opacity: 1;"><text class="legendtext" text-anchor="start" x="40" y="6.24" style="font-family: 'Open Sans', verdana, arial, sans-serif; font-size: 16px; fill: rgb(42, 63, 95); fill-opacity: 1; white-space: pre;">end_use_natural_gas_hot_tub_heater_m_btu</text><g class="layers" style="opacity: 1;"><g class="legendfill"/><g class="legendlines"/><g class="legendsymbols"><g class="legendpoints"><path class="scatterpts" transform="translate(20,0)" d="M5,0A5,5 0 1,1 0,-5A5,5 0 0,1 5,0Z" style="opacity: 1; stroke-width: 0px; fill: rgb(173, 144, 13); fill-opacity: 1;"/></g></g></g><rect class="legendtoggle" x="0" y="-11.9" width="418.953125" height="23.8" style="fill: rgb(0, 0, 0); fill-opacity: 0;"/></g></g><g class="groups" transform="translate(0,60)"><g class="traces" transform="translate(0,159.70000000000002)" style="opacity: 1;"><text class="legendtext" text-anchor="start" x="40" y="6.24" style="font-family: 'Open Sans', verdana, arial, sans-serif; font-size: 16px; fill: rgb(42, 63, 95); fill-opacity: 1; white-space: pre;">end_use_natural_gas_hot_water_m_btu</text><g class="layers" style="opacity: 1;"><g class="legendfill"/><g class="legendlines"/><g class="legendsymbols"><g class="legendpoints"><path class="scatterpts" transform="translate(20,0)" d="M5,0A5,5 0 1,1 0,-5A5,5 0 0,1 5,0Z" style="opacity: 1; stroke-width: 0px; fill: rgb(196, 142, 253); fill-opacity: 1;"/></g></g></g><rect class="legendtoggle" x="0" y="-11.9" width="418.953125" height="23.8" style="fill: rgb(0, 0, 0); fill-opacity: 0;"/></g></g><g class="groups" transform="translate(0,70)"><g class="traces" transform="translate(0,183.50000000000003)" style="opacity: 1;"><text class="legendtext" text-anchor="start" x="40" y="6.24" style="font-family: 'Open Sans', verdana, arial, sans-serif; font-size: 16px; fill: rgb(42, 63, 95); fill-opacity: 1; white-space: pre;">end_use_natural_gas_lighting_m_btu</text><g class="layers" style="opacity: 1;"><g class="legendfill"/><g class="legendlines"/><g class="legendsymbols"><g class="legendpoints"><path class="scatterpts" transform="translate(20,0)" d="M5,0A5,5 0 1,1 0,-5A5,5 0 0,1 5,0Z" style="opacity: 1; stroke-width: 0px; fill: rgb(80, 123, 156); fill-opacity: 1;"/></g></g></g><rect class="legendtoggle" x="0" y="-11.9" width="418.953125" height="23.8" style="fill: rgb(0, 0, 0); fill-opacity: 0;"/></g></g><g class="groups" transform="translate(0,80)"><g class="traces" transform="translate(0,207.30000000000004)" style="opacity: 1;"><text class="legendtext" text-anchor="start" x="40" y="6.24" style="font-family: 'Open Sans', verdana, arial, sans-serif; font-size: 16px; fill: rgb(42, 63, 95); fill-opacity: 1; white-space: pre;">end_use_natural_gas_mech_vent_preheating_m_btu</text><g class="layers" style="opacity: 1;"><g class="legendfill"/><g class="legendlines"/><g class="legendsymbols"><g class="legendpoints"><path class="scatterpts" transform="translate(20,0)" d="M5,0A5,5 0 1,1 0,-5A5,5 0 0,1 5,0Z" style="opacity: 1; stroke-width: 0px; fill: rgb(125, 113, 3); fill-opacity: 1;"/></g></g></g><rect class="legendtoggle" x="0" y="-11.9" width="418.953125" height="23.8" style="fill: rgb(0, 0, 0); fill-opacity: 0;"/></g></g><g class="groups" transform="translate(0,90)"><g class="traces" transform="translate(0,231.10000000000005)" style="opacity: 1;"><text class="legendtext" text-anchor="start" x="40" y="6.24" style="font-family: 'Open Sans', verdana, arial, sans-serif; font-size: 16px; fill: rgb(42, 63, 95); fill-opacity: 1; white-space: pre;">end_use_natural_gas_pool_heater_m_btu</text><g class="layers" style="opacity: 1;"><g class="legendfill"/><g class="legendlines"/><g class="legendsymbols"><g class="legendpoints"><path class="scatterpts" transform="translate(20,0)" d="M5,0A5,5 0 1,1 0,-5A5,5 0 0,1 5,0Z" style="opacity: 1; stroke-width: 0px; fill: rgb(255, 253, 120); fill-opacity: 1;"/></g></g></g><rect class="legendtoggle" x="0" y="-11.9" width="418.953125" height="23.8" style="fill: rgb(0, 0, 0); fill-opacity: 0;"/></g></g><g class="groups" transform="translate(0,100)"><g class="traces" transform="translate(0,254.90000000000006)" style="opacity: 1;"><text class="legendtext" text-anchor="start" x="40" y="6.24" style="font-family: 'Open Sans', verdana, arial, sans-serif; font-size: 16px; fill: rgb(42, 63, 95); fill-opacity: 1; white-space: pre;">end_use_natural_gas_range_oven_m_btu</text><g class="layers" style="opacity: 1;"><g class="legendfill"/><g class="legendlines"/><g class="legendsymbols"><g class="legendpoints"><path class="scatterpts" transform="translate(20,0)" d="M5,0A5,5 0 1,1 0,-5A5,5 0 0,1 5,0Z" style="opacity: 1; stroke-width: 0px; fill: rgb(218, 70, 125); fill-opacity: 1;"/></g></g></g><rect class="legendtoggle" x="0" y="-11.9" width="418.953125" height="23.8" style="fill: rgb(0, 0, 0); fill-opacity: 0;"/></g></g></g><rect class="scrollbar" rx="20" ry="3" width="0" height="0" style="fill: rgb(128, 139, 164); fill-opacity: 1;" x="0" y="0"/></g><g class="g-gtitle"><text class="gtitle" x="160" y="50" text-anchor="start" dy="0em" style="font-family: 'Open Sans', verdana, arial, sans-serif; font-size: 22px; fill: rgb(42, 63, 95); opacity: 1; font-weight: normal; white-space: pre;">fuel_use_natural_gas_total_m_btu</text></g><g class="g-xtitle"><text class="xtitle" x="460.03333333333336" y="968.3" text-anchor="middle" style="font-family: 'Open Sans', verdana, arial, sans-serif; font-size: 19px; fill: rgb(42, 63, 95); opacity: 1; font-weight: normal; white-space: pre;">workflows/results/develop.csv</text></g><g class="g-x2title"><text class="x2title" x="1395.5" y="968.3" text-anchor="middle" style="font-family: 'Open Sans', verdana, arial, sans-serif; font-size: 19px; fill: rgb(42, 63, 95); opacity: 1; font-weight: normal; white-space: pre;">workflows/results/develop.csv</text></g><g class="g-x3title"><text class="x3title" x="2330.9666666666667" y="968.3" text-anchor="middle" style="font-family: 'Open Sans', verdana, arial, sans-serif; font-size: 19px; fill: rgb(42, 63, 95); opacity: 1; font-weight: normal; white-space: pre;">workflows/results/develop.csv</text></g><g class="g-ytitle"><text class="ytitle" transform="rotate(-90,23.996875000000003,510)" x="23.996875000000003" y="510" text-anchor="middle" style="font-family: 'Open Sans', verdana, arial, sans-serif; font-size: 19px; fill: rgb(42, 63, 95); opacity: 1; font-weight: normal; white-space: pre;">workflows/results/feature.csv</text></g><g class="g-y2title"><text class="y2title" transform="rotate(-90,968.35625,510)" x="968.35625" y="510" text-anchor="middle" style="font-family: 'Open Sans', verdana, arial, sans-serif; font-size: 19px; fill: rgb(42, 63, 95); opacity: 1; font-weight: normal; white-space: pre;">workflows/results/feature.csv</text></g><g class="g-y3title"><text class="y3title" transform="rotate(-90,1903.825,510)" x="1903.825" y="510" text-anchor="middle" style="font-family: 'Open Sans', verdana, arial, sans-serif; font-size: 19px; fill: rgb(42, 63, 95); opacity: 1; font-weight: normal; white-space: pre;">workflows/results/feature.csv</text></g><g class="annotation" data-index="0" style="opacity: 1;"><g class="annotation-text-g" transform="rotate(0,460.03333333333336,89.5)"><g class="cursor-pointer" transform="translate(373,79)"><rect class="bg" x="0.5" y="0.5" width="173" height="20" style="stroke-width: 1px; stroke: rgb(0, 0, 0); stroke-opacity: 0; fill: rgb(0, 0, 0); fill-opacity: 0;"/><text class="annotation-text" text-anchor="middle" x="86.9375" y="16" style="font-family: 'Open Sans', verdana, arial, sans-serif; font-size: 16px; fill: rgb(42, 63, 95); fill-opacity: 1; white-space: pre;">Single-Family Detached</text></g></g></g><g class="annotation" data-index="1" style="opacity: 1;"><g class="annotation-text-g" transform="rotate(0,1395.5,89.5)"><g class="cursor-pointer" transform="translate(1311,79)"><rect class="bg" x="0.5" y="0.5" width="168" height="20" style="stroke-width: 1px; stroke: rgb(0, 0, 0); stroke-opacity: 0; fill: rgb(0, 0, 0); fill-opacity: 0;"/><text class="annotation-text" text-anchor="middle" x="84.265625" y="16" style="font-family: 'Open Sans', verdana, arial, sans-serif; font-size: 16px; fill: rgb(42, 63, 95); fill-opacity: 1; white-space: pre;">Single-Family Attached</text></g></g></g><g class="annotation" data-index="2" style="opacity: 1;"><g class="annotation-text-g" transform="rotate(0,2330.9666666666667,89.5)"><g class="cursor-pointer" transform="translate(2286,79)"><rect class="bg" x="0.5" y="0.5" width="89" height="20" style="stroke-width: 1px; stroke: rgb(0, 0, 0); stroke-opacity: 0; fill: rgb(0, 0, 0); fill-opacity: 0;"/><text class="annotation-text" text-anchor="middle" x="45.109375" y="16" style="font-family: 'Open Sans', verdana, arial, sans-serif; font-size: 16px; fill: rgb(42, 63, 95); fill-opacity: 1; white-space: pre;">Multi-Family</text></g></g></g></g></svg>