<?xml version="1.0" encoding="utf-8" standalone="no"?>
<!DOCTYPE svg PUBLIC "-//W3C//DTD SVG 1.1//EN"
  "http://www.w3.org/Graphics/SVG/1.1/DTD/svg11.dtd">
<!-- Created with matplotlib (https://matplotlib.org/) -->
<svg height="504pt" version="1.1" viewBox="0 0 1440 504" width="1440pt" xmlns="http://www.w3.org/2000/svg" xmlns:xlink="http://www.w3.org/1999/xlink">
 <defs>
  <style type="text/css">
*{stroke-linecap:butt;stroke-linejoin:round;}
  </style>
 </defs>
 <g id="figure_1">
  <g id="patch_1">
   <path d="M 0 504 
L 1440 504 
L 1440 0 
L 0 0 
z
" style="fill:#ffffff;"/>
  </g>
  <g id="axes_1">
   <g id="patch_2">
    <path d="M 180 352.8 
L 1296 352.8 
L 1296 60.48 
L 180 60.48 
z
" style="fill:#ffffff;"/>
   </g>
   <g id="patch_3">
    <path clip-path="url(#p845b27d3af)" d="M 193.392 352.8 
L 211.248 352.8 
L 211.248 98.357593 
L 193.392 98.357593 
z
" style="fill:#1f77b4;"/>
   </g>
   <g id="patch_4">
    <path clip-path="url(#p845b27d3af)" d="M 215.712 352.8 
L 233.568 352.8 
L 233.568 161.800154 
L 215.712 161.800154 
z
" style="fill:#1f77b4;"/>
   </g>
   <g id="patch_5">
    <path clip-path="url(#p845b27d3af)" d="M 238.032 352.8 
L 255.888 352.8 
L 255.888 185.375558 
L 238.032 185.375558 
z
" style="fill:#1f77b4;"/>
   </g>
   <g id="patch_6">
    <path clip-path="url(#p845b27d3af)" d="M 260.352 352.8 
L 278.208 352.8 
L 278.208 203.41849 
L 260.352 203.41849 
z
" style="fill:#1f77b4;"/>
   </g>
   <g id="patch_7">
    <path clip-path="url(#p845b27d3af)" d="M 282.672 352.8 
L 300.528 352.8 
L 300.528 250.507232 
L 282.672 250.507232 
z
" style="fill:#1f77b4;"/>
   </g>
   <g id="patch_8">
    <path clip-path="url(#p845b27d3af)" d="M 304.992 352.8 
L 322.848 352.8 
L 322.848 255.662831 
L 304.992 255.662831 
z
" style="fill:#1f77b4;"/>
   </g>
   <g id="patch_9">
    <path clip-path="url(#p845b27d3af)" d="M 327.312 352.8 
L 345.168 352.8 
L 345.168 258.651454 
L 327.312 258.651454 
z
" style="fill:#1f77b4;"/>
   </g>
   <g id="patch_10">
    <path clip-path="url(#p845b27d3af)" d="M 349.632 352.8 
L 367.488 352.8 
L 367.488 269.663752 
L 349.632 269.663752 
z
" style="fill:#1f77b4;"/>
   </g>
   <g id="patch_11">
    <path clip-path="url(#p845b27d3af)" d="M 371.952 352.8 
L 389.808 352.8 
L 389.808 271.331134 
L 371.952 271.331134 
z
" style="fill:#1f77b4;"/>
   </g>
   <g id="patch_12">
    <path clip-path="url(#p845b27d3af)" d="M 394.272 352.8 
L 412.128 352.8 
L 412.128 276.76845 
L 394.272 276.76845 
z
" style="fill:#1f77b4;"/>
   </g>
   <g id="patch_13">
    <path clip-path="url(#p845b27d3af)" d="M 416.592 352.8 
L 434.448 352.8 
L 434.448 287.196352 
L 416.592 287.196352 
z
" style="fill:#1f77b4;"/>
   </g>
   <g id="patch_14">
    <path clip-path="url(#p845b27d3af)" d="M 438.912 352.8 
L 456.768 352.8 
L 456.768 289.831735 
L 438.912 289.831735 
z
" style="fill:#1f77b4;"/>
   </g>
   <g id="patch_15">
    <path clip-path="url(#p845b27d3af)" d="M 461.232 352.8 
L 479.088 352.8 
L 479.088 298.530666 
L 461.232 298.530666 
z
" style="fill:#1f77b4;"/>
   </g>
   <g id="patch_16">
    <path clip-path="url(#p845b27d3af)" d="M 483.552 352.8 
L 501.408 352.8 
L 501.408 299.751537 
L 483.552 299.751537 
z
" style="fill:#1f77b4;"/>
   </g>
   <g id="patch_17">
    <path clip-path="url(#p845b27d3af)" d="M 505.872 352.8 
L 523.728 352.8 
L 523.728 300.237979 
L 505.872 300.237979 
z
" style="fill:#1f77b4;"/>
   </g>
   <g id="patch_18">
    <path clip-path="url(#p845b27d3af)" d="M 528.192 352.8 
L 546.048 352.8 
L 546.048 300.911495 
L 528.192 300.911495 
z
" style="fill:#1f77b4;"/>
   </g>
   <g id="patch_19">
    <path clip-path="url(#p845b27d3af)" d="M 550.512 352.8 
L 568.368 352.8 
L 568.368 301.021047 
L 550.512 301.021047 
z
" style="fill:#1f77b4;"/>
   </g>
   <g id="patch_20">
    <path clip-path="url(#p845b27d3af)" d="M 572.832 352.8 
L 590.688 352.8 
L 590.688 302.702002 
L 572.832 302.702002 
z
" style="fill:#1f77b4;"/>
   </g>
   <g id="patch_21">
    <path clip-path="url(#p845b27d3af)" d="M 595.152 352.8 
L 613.008 352.8 
L 613.008 304.333239 
L 595.152 304.333239 
z
" style="fill:#1f77b4;"/>
   </g>
   <g id="patch_22">
    <path clip-path="url(#p845b27d3af)" d="M 617.472 352.8 
L 635.328 352.8 
L 635.328 308.498136 
L 617.472 308.498136 
z
" style="fill:#1f77b4;"/>
   </g>
   <g id="patch_23">
    <path clip-path="url(#p845b27d3af)" d="M 639.792 352.8 
L 657.648 352.8 
L 657.648 309.212517 
L 639.792 309.212517 
z
" style="fill:#1f77b4;"/>
   </g>
   <g id="patch_24">
    <path clip-path="url(#p845b27d3af)" d="M 662.112 352.8 
L 679.968 352.8 
L 679.968 311.004999 
L 662.112 311.004999 
z
" style="fill:#1f77b4;"/>
   </g>
   <g id="patch_25">
    <path clip-path="url(#p845b27d3af)" d="M 684.432 352.8 
L 702.288 352.8 
L 702.288 312.386567 
L 684.432 312.386567 
z
" style="fill:#1f77b4;"/>
   </g>
   <g id="patch_26">
    <path clip-path="url(#p845b27d3af)" d="M 706.752 352.8 
L 724.608 352.8 
L 724.608 312.702911 
L 706.752 312.702911 
z
" style="fill:#1f77b4;"/>
   </g>
   <g id="patch_27">
    <path clip-path="url(#p845b27d3af)" d="M 729.072 352.8 
L 746.928 352.8 
L 746.928 316.001731 
L 729.072 316.001731 
z
" style="fill:#1f77b4;"/>
   </g>
   <g id="patch_28">
    <path clip-path="url(#p845b27d3af)" d="M 751.392 352.8 
L 769.248 352.8 
L 769.248 317.110417 
L 751.392 317.110417 
z
" style="fill:#1f77b4;"/>
   </g>
   <g id="patch_29">
    <path clip-path="url(#p845b27d3af)" d="M 773.712 352.8 
L 791.568 352.8 
L 791.568 321.588329 
L 773.712 321.588329 
z
" style="fill:#1f77b4;"/>
   </g>
   <g id="patch_30">
    <path clip-path="url(#p845b27d3af)" d="M 796.032 352.8 
L 813.888 352.8 
L 813.888 321.713228 
L 796.032 321.713228 
z
" style="fill:#1f77b4;"/>
   </g>
   <g id="patch_31">
    <path clip-path="url(#p845b27d3af)" d="M 818.352 352.8 
L 836.208 352.8 
L 836.208 325.475259 
L 818.352 325.475259 
z
" style="fill:#1f77b4;"/>
   </g>
   <g id="patch_32">
    <path clip-path="url(#p845b27d3af)" d="M 840.672 352.8 
L 858.528 352.8 
L 858.528 327.874802 
L 840.672 327.874802 
z
" style="fill:#1f77b4;"/>
   </g>
   <g id="patch_33">
    <path clip-path="url(#p845b27d3af)" d="M 862.992 352.8 
L 880.848 352.8 
L 880.848 328.263107 
L 862.992 328.263107 
z
" style="fill:#1f77b4;"/>
   </g>
   <g id="patch_34">
    <path clip-path="url(#p845b27d3af)" d="M 885.312 352.8 
L 903.168 352.8 
L 903.168 329.107271 
L 885.312 329.107271 
z
" style="fill:#1f77b4;"/>
   </g>
   <g id="patch_35">
    <path clip-path="url(#p845b27d3af)" d="M 907.632 352.8 
L 925.488 352.8 
L 925.488 329.953958 
L 907.632 329.953958 
z
" style="fill:#1f77b4;"/>
   </g>
   <g id="patch_36">
    <path clip-path="url(#p845b27d3af)" d="M 929.952 352.8 
L 947.808 352.8 
L 947.808 330.839992 
L 929.952 330.839992 
z
" style="fill:#1f77b4;"/>
   </g>
   <g id="patch_37">
    <path clip-path="url(#p845b27d3af)" d="M 952.272 352.8 
L 970.128 352.8 
L 970.128 334.068004 
L 952.272 334.068004 
z
" style="fill:#1f77b4;"/>
   </g>
   <g id="patch_38">
    <path clip-path="url(#p845b27d3af)" d="M 974.592 352.8 
L 992.448 352.8 
L 992.448 336.109441 
L 974.592 336.109441 
z
" style="fill:#1f77b4;"/>
   </g>
   <g id="patch_39">
    <path clip-path="url(#p845b27d3af)" d="M 996.912 352.8 
L 1014.768 352.8 
L 1014.768 336.616444 
L 996.912 336.616444 
z
" style="fill:#1f77b4;"/>
   </g>
   <g id="patch_40">
    <path clip-path="url(#p845b27d3af)" d="M 1019.232 352.8 
L 1037.088 352.8 
L 1037.088 337.891808 
L 1019.232 337.891808 
z
" style="fill:#1f77b4;"/>
   </g>
   <g id="patch_41">
    <path clip-path="url(#p845b27d3af)" d="M 1041.552 352.8 
L 1059.408 352.8 
L 1059.408 339.499302 
L 1041.552 339.499302 
z
" style="fill:#1f77b4;"/>
   </g>
   <g id="patch_42">
    <path clip-path="url(#p845b27d3af)" d="M 1063.872 352.8 
L 1081.728 352.8 
L 1081.728 340.251364 
L 1063.872 340.251364 
z
" style="fill:#1f77b4;"/>
   </g>
   <g id="patch_43">
    <path clip-path="url(#p845b27d3af)" d="M 1086.192 352.8 
L 1104.048 352.8 
L 1104.048 341.445547 
L 1086.192 341.445547 
z
" style="fill:#1f77b4;"/>
   </g>
   <g id="patch_44">
    <path clip-path="url(#p845b27d3af)" d="M 1108.512 352.8 
L 1126.368 352.8 
L 1126.368 343.810536 
L 1108.512 343.810536 
z
" style="fill:#1f77b4;"/>
   </g>
   <g id="patch_45">
    <path clip-path="url(#p845b27d3af)" d="M 1130.832 352.8 
L 1148.688 352.8 
L 1148.688 344.33702 
L 1130.832 344.33702 
z
" style="fill:#1f77b4;"/>
   </g>
   <g id="patch_46">
    <path clip-path="url(#p845b27d3af)" d="M 1153.152 352.8 
L 1171.008 352.8 
L 1171.008 345.155227 
L 1153.152 345.155227 
z
" style="fill:#1f77b4;"/>
   </g>
   <g id="patch_47">
    <path clip-path="url(#p845b27d3af)" d="M 1175.472 352.8 
L 1193.328 352.8 
L 1193.328 345.924612 
L 1175.472 345.924612 
z
" style="fill:#1f77b4;"/>
   </g>
   <g id="patch_48">
    <path clip-path="url(#p845b27d3af)" d="M 1197.792 352.8 
L 1215.648 352.8 
L 1215.648 346.395305 
L 1197.792 346.395305 
z
" style="fill:#1f77b4;"/>
   </g>
   <g id="patch_49">
    <path clip-path="url(#p845b27d3af)" d="M 1220.112 352.8 
L 1237.968 352.8 
L 1237.968 346.821914 
L 1220.112 346.821914 
z
" style="fill:#1f77b4;"/>
   </g>
   <g id="patch_50">
    <path clip-path="url(#p845b27d3af)" d="M 1242.432 352.8 
L 1260.288 352.8 
L 1260.288 347.189604 
L 1242.432 347.189604 
z
" style="fill:#1f77b4;"/>
   </g>
   <g id="patch_51">
    <path clip-path="url(#p845b27d3af)" d="M 1264.752 352.8 
L 1282.608 352.8 
L 1282.608 347.897948 
L 1264.752 347.897948 
z
" style="fill:#1f77b4;"/>
   </g>
   <g id="matplotlib.axis_1">
    <g id="xtick_1">
     <g id="line2d_1">
      <defs>
       <path d="M 0 0 
L 0 3.5 
" id="m76091c3af3" style="stroke:#000000;stroke-width:0.8;"/>
      </defs>
      <g>
       <use style="stroke:#000000;stroke-width:0.8;" x="202.32" xlink:href="#m76091c3af3" y="352.8"/>
      </g>
     </g>
     <g id="text_1">
      <!-- California -->
      <defs>
       <path d="M 64.40625 67.28125 
L 64.40625 56.890625 
Q 59.421875 61.53125 53.78125 63.8125 
Q 48.140625 66.109375 41.796875 66.109375 
Q 29.296875 66.109375 22.65625 58.46875 
Q 16.015625 50.828125 16.015625 36.375 
Q 16.015625 21.96875 22.65625 14.328125 
Q 29.296875 6.6875 41.796875 6.6875 
Q 48.140625 6.6875 53.78125 8.984375 
Q 59.421875 11.28125 64.40625 15.921875 
L 64.40625 5.609375 
Q 59.234375 2.09375 53.4375 0.328125 
Q 47.65625 -1.421875 41.21875 -1.421875 
Q 24.65625 -1.421875 15.125 8.703125 
Q 5.609375 18.84375 5.609375 36.375 
Q 5.609375 53.953125 15.125 64.078125 
Q 24.65625 74.21875 41.21875 74.21875 
Q 47.75 74.21875 53.53125 72.484375 
Q 59.328125 70.75 64.40625 67.28125 
z
" id="DejaVuSans-67"/>
       <path d="M 34.28125 27.484375 
Q 23.390625 27.484375 19.1875 25 
Q 14.984375 22.515625 14.984375 16.5 
Q 14.984375 11.71875 18.140625 8.90625 
Q 21.296875 6.109375 26.703125 6.109375 
Q 34.1875 6.109375 38.703125 11.40625 
Q 43.21875 16.703125 43.21875 25.484375 
L 43.21875 27.484375 
z
M 52.203125 31.203125 
L 52.203125 0 
L 43.21875 0 
L 43.21875 8.296875 
Q 40.140625 3.328125 35.546875 0.953125 
Q 30.953125 -1.421875 24.3125 -1.421875 
Q 15.921875 -1.421875 10.953125 3.296875 
Q 6 8.015625 6 15.921875 
Q 6 25.140625 12.171875 29.828125 
Q 18.359375 34.515625 30.609375 34.515625 
L 43.21875 34.515625 
L 43.21875 35.40625 
Q 43.21875 41.609375 39.140625 45 
Q 35.0625 48.390625 27.6875 48.390625 
Q 23 48.390625 18.546875 47.265625 
Q 14.109375 46.140625 10.015625 43.890625 
L 10.015625 52.203125 
Q 14.9375 54.109375 19.578125 55.046875 
Q 24.21875 56 28.609375 56 
Q 40.484375 56 46.34375 49.84375 
Q 52.203125 43.703125 52.203125 31.203125 
z
" id="DejaVuSans-97"/>
       <path d="M 9.421875 75.984375 
L 18.40625 75.984375 
L 18.40625 0 
L 9.421875 0 
z
" id="DejaVuSans-108"/>
       <path d="M 9.421875 54.6875 
L 18.40625 54.6875 
L 18.40625 0 
L 9.421875 0 
z
M 9.421875 75.984375 
L 18.40625 75.984375 
L 18.40625 64.59375 
L 9.421875 64.59375 
z
" id="DejaVuSans-105"/>
       <path d="M 37.109375 75.984375 
L 37.109375 68.5 
L 28.515625 68.5 
Q 23.6875 68.5 21.796875 66.546875 
Q 19.921875 64.59375 19.921875 59.515625 
L 19.921875 54.6875 
L 34.71875 54.6875 
L 34.71875 47.703125 
L 19.921875 47.703125 
L 19.921875 0 
L 10.890625 0 
L 10.890625 47.703125 
L 2.296875 47.703125 
L 2.296875 54.6875 
L 10.890625 54.6875 
L 10.890625 58.5 
Q 10.890625 67.625 15.140625 71.796875 
Q 19.390625 75.984375 28.609375 75.984375 
z
" id="DejaVuSans-102"/>
       <path d="M 30.609375 48.390625 
Q 23.390625 48.390625 19.1875 42.75 
Q 14.984375 37.109375 14.984375 27.296875 
Q 14.984375 17.484375 19.15625 11.84375 
Q 23.34375 6.203125 30.609375 6.203125 
Q 37.796875 6.203125 41.984375 11.859375 
Q 46.1875 17.53125 46.1875 27.296875 
Q 46.1875 37.015625 41.984375 42.703125 
Q 37.796875 48.390625 30.609375 48.390625 
z
M 30.609375 56 
Q 42.328125 56 49.015625 48.375 
Q 55.71875 40.765625 55.71875 27.296875 
Q 55.71875 13.875 49.015625 6.21875 
Q 42.328125 -1.421875 30.609375 -1.421875 
Q 18.84375 -1.421875 12.171875 6.21875 
Q 5.515625 13.875 5.515625 27.296875 
Q 5.515625 40.765625 12.171875 48.375 
Q 18.84375 56 30.609375 56 
z
" id="DejaVuSans-111"/>
       <path d="M 41.109375 46.296875 
Q 39.59375 47.171875 37.8125 47.578125 
Q 36.03125 48 33.890625 48 
Q 26.265625 48 22.1875 43.046875 
Q 18.109375 38.09375 18.109375 28.8125 
L 18.109375 0 
L 9.078125 0 
L 9.078125 54.6875 
L 18.109375 54.6875 
L 18.109375 46.1875 
Q 20.953125 51.171875 25.484375 53.578125 
Q 30.03125 56 36.53125 56 
Q 37.453125 56 38.578125 55.875 
Q 39.703125 55.765625 41.0625 55.515625 
z
" id="DejaVuSans-114"/>
       <path d="M 54.890625 33.015625 
L 54.890625 0 
L 45.90625 0 
L 45.90625 32.71875 
Q 45.90625 40.484375 42.875 44.328125 
Q 39.84375 48.1875 33.796875 48.1875 
Q 26.515625 48.1875 22.3125 43.546875 
Q 18.109375 38.921875 18.109375 30.90625 
L 18.109375 0 
L 9.078125 0 
L 9.078125 54.6875 
L 18.109375 54.6875 
L 18.109375 46.1875 
Q 21.34375 51.125 25.703125 53.5625 
Q 30.078125 56 35.796875 56 
Q 45.21875 56 50.046875 50.171875 
Q 54.890625 44.34375 54.890625 33.015625 
z
" id="DejaVuSans-110"/>
      </defs>
      <g transform="translate(160.115006 406.687809)rotate(-45)scale(0.12 -0.12)">
       <use xlink:href="#DejaVuSans-67"/>
       <use x="69.824219" xlink:href="#DejaVuSans-97"/>
       <use x="131.103516" xlink:href="#DejaVuSans-108"/>
       <use x="158.886719" xlink:href="#DejaVuSans-105"/>
       <use x="186.669922" xlink:href="#DejaVuSans-102"/>
       <use x="221.875" xlink:href="#DejaVuSans-111"/>
       <use x="283.056641" xlink:href="#DejaVuSans-114"/>
       <use x="324.154297" xlink:href="#DejaVuSans-110"/>
       <use x="387.533203" xlink:href="#DejaVuSans-105"/>
       <use x="415.316406" xlink:href="#DejaVuSans-97"/>
      </g>
     </g>
    </g>
    <g id="xtick_2">
     <g id="line2d_2">
      <g>
       <use style="stroke:#000000;stroke-width:0.8;" x="224.64" xlink:href="#m76091c3af3" y="352.8"/>
      </g>
     </g>
     <g id="text_2">
      <!-- Texas -->
      <defs>
       <path d="M -0.296875 72.90625 
L 61.375 72.90625 
L 61.375 64.59375 
L 35.5 64.59375 
L 35.5 0 
L 25.59375 0 
L 25.59375 64.59375 
L -0.296875 64.59375 
z
" id="DejaVuSans-84"/>
       <path d="M 56.203125 29.59375 
L 56.203125 25.203125 
L 14.890625 25.203125 
Q 15.484375 15.921875 20.484375 11.0625 
Q 25.484375 6.203125 34.421875 6.203125 
Q 39.59375 6.203125 44.453125 7.46875 
Q 49.3125 8.734375 54.109375 11.28125 
L 54.109375 2.78125 
Q 49.265625 0.734375 44.1875 -0.34375 
Q 39.109375 -1.421875 33.890625 -1.421875 
Q 20.796875 -1.421875 13.15625 6.1875 
Q 5.515625 13.8125 5.515625 26.8125 
Q 5.515625 40.234375 12.765625 48.109375 
Q 20.015625 56 32.328125 56 
Q 43.359375 56 49.78125 48.890625 
Q 56.203125 41.796875 56.203125 29.59375 
z
M 47.21875 32.234375 
Q 47.125 39.59375 43.09375 43.984375 
Q 39.0625 48.390625 32.421875 48.390625 
Q 24.90625 48.390625 20.390625 44.140625 
Q 15.875 39.890625 15.1875 32.171875 
z
" id="DejaVuSans-101"/>
       <path d="M 54.890625 54.6875 
L 35.109375 28.078125 
L 55.90625 0 
L 45.3125 0 
L 29.390625 21.484375 
L 13.484375 0 
L 2.875 0 
L 24.125 28.609375 
L 4.6875 54.6875 
L 15.28125 54.6875 
L 29.78125 35.203125 
L 44.28125 54.6875 
z
" id="DejaVuSans-120"/>
       <path d="M 44.28125 53.078125 
L 44.28125 44.578125 
Q 40.484375 46.53125 36.375 47.5 
Q 32.28125 48.484375 27.875 48.484375 
Q 21.1875 48.484375 17.84375 46.4375 
Q 14.5 44.390625 14.5 40.28125 
Q 14.5 37.15625 16.890625 35.375 
Q 19.28125 33.59375 26.515625 31.984375 
L 29.59375 31.296875 
Q 39.15625 29.25 43.1875 25.515625 
Q 47.21875 21.78125 47.21875 15.09375 
Q 47.21875 7.46875 41.1875 3.015625 
Q 35.15625 -1.421875 24.609375 -1.421875 
Q 20.21875 -1.421875 15.453125 -0.5625 
Q 10.6875 0.296875 5.421875 2 
L 5.421875 11.28125 
Q 10.40625 8.6875 15.234375 7.390625 
Q 20.0625 6.109375 24.8125 6.109375 
Q 31.15625 6.109375 34.5625 8.28125 
Q 37.984375 10.453125 37.984375 14.40625 
Q 37.984375 18.0625 35.515625 20.015625 
Q 33.0625 21.96875 24.703125 23.78125 
L 21.578125 24.515625 
Q 13.234375 26.265625 9.515625 29.90625 
Q 5.8125 33.546875 5.8125 39.890625 
Q 5.8125 47.609375 11.28125 51.796875 
Q 16.75 56 26.8125 56 
Q 31.78125 56 36.171875 55.265625 
Q 40.578125 54.546875 44.28125 53.078125 
z
" id="DejaVuSans-115"/>
      </defs>
      <g transform="translate(197.853027 391.269787)rotate(-45)scale(0.12 -0.12)">
       <use xlink:href="#DejaVuSans-84"/>
       <use x="60.818359" xlink:href="#DejaVuSans-101"/>
       <use x="122.326172" xlink:href="#DejaVuSans-120"/>
       <use x="181.505859" xlink:href="#DejaVuSans-97"/>
       <use x="242.785156" xlink:href="#DejaVuSans-115"/>
      </g>
     </g>
    </g>
    <g id="xtick_3">
     <g id="line2d_3">
      <g>
       <use style="stroke:#000000;stroke-width:0.8;" x="246.96" xlink:href="#m76091c3af3" y="352.8"/>
      </g>
     </g>
     <g id="text_3">
      <!-- Florida -->
      <defs>
       <path d="M 9.8125 72.90625 
L 51.703125 72.90625 
L 51.703125 64.59375 
L 19.671875 64.59375 
L 19.671875 43.109375 
L 48.578125 43.109375 
L 48.578125 34.8125 
L 19.671875 34.8125 
L 19.671875 0 
L 9.8125 0 
z
" id="DejaVuSans-70"/>
       <path d="M 45.40625 46.390625 
L 45.40625 75.984375 
L 54.390625 75.984375 
L 54.390625 0 
L 45.40625 0 
L 45.40625 8.203125 
Q 42.578125 3.328125 38.25 0.953125 
Q 33.9375 -1.421875 27.875 -1.421875 
Q 17.96875 -1.421875 11.734375 6.484375 
Q 5.515625 14.40625 5.515625 27.296875 
Q 5.515625 40.1875 11.734375 48.09375 
Q 17.96875 56 27.875 56 
Q 33.9375 56 38.25 53.625 
Q 42.578125 51.265625 45.40625 46.390625 
z
M 14.796875 27.296875 
Q 14.796875 17.390625 18.875 11.75 
Q 22.953125 6.109375 30.078125 6.109375 
Q 37.203125 6.109375 41.296875 11.75 
Q 45.40625 17.390625 45.40625 27.296875 
Q 45.40625 37.203125 41.296875 42.84375 
Q 37.203125 48.484375 30.078125 48.484375 
Q 22.953125 48.484375 18.875 42.84375 
Q 14.796875 37.203125 14.796875 27.296875 
z
" id="DejaVuSans-100"/>
      </defs>
      <g transform="translate(216.333438 395.109377)rotate(-45)scale(0.12 -0.12)">
       <use xlink:href="#DejaVuSans-70"/>
       <use x="57.519531" xlink:href="#DejaVuSans-108"/>
       <use x="85.302734" xlink:href="#DejaVuSans-111"/>
       <use x="146.484375" xlink:href="#DejaVuSans-114"/>
       <use x="187.597656" xlink:href="#DejaVuSans-105"/>
       <use x="215.380859" xlink:href="#DejaVuSans-100"/>
       <use x="278.857422" xlink:href="#DejaVuSans-97"/>
      </g>
     </g>
    </g>
    <g id="xtick_4">
     <g id="line2d_4">
      <g>
       <use style="stroke:#000000;stroke-width:0.8;" x="269.28" xlink:href="#m76091c3af3" y="352.8"/>
      </g>
     </g>
     <g id="text_4">
      <!-- New York -->
      <defs>
       <path d="M 9.8125 72.90625 
L 23.09375 72.90625 
L 55.421875 11.921875 
L 55.421875 72.90625 
L 64.984375 72.90625 
L 64.984375 0 
L 51.703125 0 
L 19.390625 60.984375 
L 19.390625 0 
L 9.8125 0 
z
" id="DejaVuSans-78"/>
       <path d="M 4.203125 54.6875 
L 13.1875 54.6875 
L 24.421875 12.015625 
L 35.59375 54.6875 
L 46.1875 54.6875 
L 57.421875 12.015625 
L 68.609375 54.6875 
L 77.59375 54.6875 
L 63.28125 0 
L 52.6875 0 
L 40.921875 44.828125 
L 29.109375 0 
L 18.5 0 
z
" id="DejaVuSans-119"/>
       <path id="DejaVuSans-32"/>
       <path d="M -0.203125 72.90625 
L 10.40625 72.90625 
L 30.609375 42.921875 
L 50.6875 72.90625 
L 61.28125 72.90625 
L 35.5 34.71875 
L 35.5 0 
L 25.59375 0 
L 25.59375 34.71875 
z
" id="DejaVuSans-89"/>
       <path d="M 9.078125 75.984375 
L 18.109375 75.984375 
L 18.109375 31.109375 
L 44.921875 54.6875 
L 56.390625 54.6875 
L 27.390625 29.109375 
L 57.625 0 
L 45.90625 0 
L 18.109375 26.703125 
L 18.109375 0 
L 9.078125 0 
z
" id="DejaVuSans-107"/>
      </defs>
      <g transform="translate(227.550977 406.211837)rotate(-45)scale(0.12 -0.12)">
       <use xlink:href="#DejaVuSans-78"/>
       <use x="74.804688" xlink:href="#DejaVuSans-101"/>
       <use x="136.328125" xlink:href="#DejaVuSans-119"/>
       <use x="218.115234" xlink:href="#DejaVuSans-32"/>
       <use x="249.902344" xlink:href="#DejaVuSans-89"/>
       <use x="310.783203" xlink:href="#DejaVuSans-111"/>
       <use x="371.964844" xlink:href="#DejaVuSans-114"/>
       <use x="413.078125" xlink:href="#DejaVuSans-107"/>
      </g>
     </g>
    </g>
    <g id="xtick_5">
     <g id="line2d_5">
      <g>
       <use style="stroke:#000000;stroke-width:0.8;" x="291.6" xlink:href="#m76091c3af3" y="352.8"/>
      </g>
     </g>
     <g id="text_5">
      <!-- Pennsylvania -->
      <defs>
       <path d="M 19.671875 64.796875 
L 19.671875 37.40625 
L 32.078125 37.40625 
Q 38.96875 37.40625 42.71875 40.96875 
Q 46.484375 44.53125 46.484375 51.125 
Q 46.484375 57.671875 42.71875 61.234375 
Q 38.96875 64.796875 32.078125 64.796875 
z
M 9.8125 72.90625 
L 32.078125 72.90625 
Q 44.34375 72.90625 50.609375 67.359375 
Q 56.890625 61.8125 56.890625 51.125 
Q 56.890625 40.328125 50.609375 34.8125 
Q 44.34375 29.296875 32.078125 29.296875 
L 19.671875 29.296875 
L 19.671875 0 
L 9.8125 0 
z
" id="DejaVuSans-80"/>
       <path d="M 32.171875 -5.078125 
Q 28.375 -14.84375 24.75 -17.8125 
Q 21.140625 -20.796875 15.09375 -20.796875 
L 7.90625 -20.796875 
L 7.90625 -13.28125 
L 13.1875 -13.28125 
Q 16.890625 -13.28125 18.9375 -11.515625 
Q 21 -9.765625 23.484375 -3.21875 
L 25.09375 0.875 
L 2.984375 54.6875 
L 12.5 54.6875 
L 29.59375 11.921875 
L 46.6875 54.6875 
L 56.203125 54.6875 
z
" id="DejaVuSans-121"/>
       <path d="M 2.984375 54.6875 
L 12.5 54.6875 
L 29.59375 8.796875 
L 46.6875 54.6875 
L 56.203125 54.6875 
L 35.6875 0 
L 23.484375 0 
z
" id="DejaVuSans-118"/>
      </defs>
      <g transform="translate(233.790043 422.292771)rotate(-45)scale(0.12 -0.12)">
       <use xlink:href="#DejaVuSans-80"/>
       <use x="60.255859" xlink:href="#DejaVuSans-101"/>
       <use x="121.779297" xlink:href="#DejaVuSans-110"/>
       <use x="185.158203" xlink:href="#DejaVuSans-110"/>
       <use x="248.537109" xlink:href="#DejaVuSans-115"/>
       <use x="300.636719" xlink:href="#DejaVuSans-121"/>
       <use x="359.816406" xlink:href="#DejaVuSans-108"/>
       <use x="387.599609" xlink:href="#DejaVuSans-118"/>
       <use x="446.779297" xlink:href="#DejaVuSans-97"/>
       <use x="508.058594" xlink:href="#DejaVuSans-110"/>
       <use x="571.4375" xlink:href="#DejaVuSans-105"/>
       <use x="599.220703" xlink:href="#DejaVuSans-97"/>
      </g>
     </g>
    </g>
    <g id="xtick_6">
     <g id="line2d_6">
      <g>
       <use style="stroke:#000000;stroke-width:0.8;" x="313.92" xlink:href="#m76091c3af3" y="352.8"/>
      </g>
     </g>
     <g id="text_6">
      <!-- Illinois -->
      <defs>
       <path d="M 9.8125 72.90625 
L 19.671875 72.90625 
L 19.671875 0 
L 9.8125 0 
z
" id="DejaVuSans-73"/>
      </defs>
      <g transform="translate(285.23312 393.169695)rotate(-45)scale(0.12 -0.12)">
       <use xlink:href="#DejaVuSans-73"/>
       <use x="29.492188" xlink:href="#DejaVuSans-108"/>
       <use x="57.275391" xlink:href="#DejaVuSans-108"/>
       <use x="85.058594" xlink:href="#DejaVuSans-105"/>
       <use x="112.841797" xlink:href="#DejaVuSans-110"/>
       <use x="176.220703" xlink:href="#DejaVuSans-111"/>
       <use x="237.402344" xlink:href="#DejaVuSans-105"/>
       <use x="265.185547" xlink:href="#DejaVuSans-115"/>
      </g>
     </g>
    </g>
    <g id="xtick_7">
     <g id="line2d_7">
      <g>
       <use style="stroke:#000000;stroke-width:0.8;" x="336.24" xlink:href="#m76091c3af3" y="352.8"/>
      </g>
     </g>
     <g id="text_7">
      <!-- Ohio -->
      <defs>
       <path d="M 39.40625 66.21875 
Q 28.65625 66.21875 22.328125 58.203125 
Q 16.015625 50.203125 16.015625 36.375 
Q 16.015625 22.609375 22.328125 14.59375 
Q 28.65625 6.59375 39.40625 6.59375 
Q 50.140625 6.59375 56.421875 14.59375 
Q 62.703125 22.609375 62.703125 36.375 
Q 62.703125 50.203125 56.421875 58.203125 
Q 50.140625 66.21875 39.40625 66.21875 
z
M 39.40625 74.21875 
Q 54.734375 74.21875 63.90625 63.9375 
Q 73.09375 53.65625 73.09375 36.375 
Q 73.09375 19.140625 63.90625 8.859375 
Q 54.734375 -1.421875 39.40625 -1.421875 
Q 24.03125 -1.421875 14.8125 8.828125 
Q 5.609375 19.09375 5.609375 36.375 
Q 5.609375 53.65625 14.8125 63.9375 
Q 24.03125 74.21875 39.40625 74.21875 
z
" id="DejaVuSans-79"/>
       <path d="M 54.890625 33.015625 
L 54.890625 0 
L 45.90625 0 
L 45.90625 32.71875 
Q 45.90625 40.484375 42.875 44.328125 
Q 39.84375 48.1875 33.796875 48.1875 
Q 26.515625 48.1875 22.3125 43.546875 
Q 18.109375 38.921875 18.109375 30.90625 
L 18.109375 0 
L 9.078125 0 
L 9.078125 75.984375 
L 18.109375 75.984375 
L 18.109375 46.1875 
Q 21.34375 51.125 25.703125 53.5625 
Q 30.078125 56 35.796875 56 
Q 45.21875 56 50.046875 50.171875 
Q 54.890625 44.34375 54.890625 33.015625 
z
" id="DejaVuSans-104"/>
      </defs>
      <g transform="translate(314.869023 385.853791)rotate(-45)scale(0.12 -0.12)">
       <use xlink:href="#DejaVuSans-79"/>
       <use x="78.710938" xlink:href="#DejaVuSans-104"/>
       <use x="142.089844" xlink:href="#DejaVuSans-105"/>
       <use x="169.873047" xlink:href="#DejaVuSans-111"/>
      </g>
     </g>
    </g>
    <g id="xtick_8">
     <g id="line2d_8">
      <g>
       <use style="stroke:#000000;stroke-width:0.8;" x="358.56" xlink:href="#m76091c3af3" y="352.8"/>
      </g>
     </g>
     <g id="text_8">
      <!-- Michigan -->
      <defs>
       <path d="M 9.8125 72.90625 
L 24.515625 72.90625 
L 43.109375 23.296875 
L 61.8125 72.90625 
L 76.515625 72.90625 
L 76.515625 0 
L 66.890625 0 
L 66.890625 64.015625 
L 48.09375 14.015625 
L 38.1875 14.015625 
L 19.390625 64.015625 
L 19.390625 0 
L 9.8125 0 
z
" id="DejaVuSans-77"/>
       <path d="M 48.78125 52.59375 
L 48.78125 44.1875 
Q 44.96875 46.296875 41.140625 47.34375 
Q 37.3125 48.390625 33.40625 48.390625 
Q 24.65625 48.390625 19.8125 42.84375 
Q 14.984375 37.3125 14.984375 27.296875 
Q 14.984375 17.28125 19.8125 11.734375 
Q 24.65625 6.203125 33.40625 6.203125 
Q 37.3125 6.203125 41.140625 7.25 
Q 44.96875 8.296875 48.78125 10.40625 
L 48.78125 2.09375 
Q 45.015625 0.34375 40.984375 -0.53125 
Q 36.96875 -1.421875 32.421875 -1.421875 
Q 20.0625 -1.421875 12.78125 6.34375 
Q 5.515625 14.109375 5.515625 27.296875 
Q 5.515625 40.671875 12.859375 48.328125 
Q 20.21875 56 33.015625 56 
Q 37.15625 56 41.109375 55.140625 
Q 45.0625 54.296875 48.78125 52.59375 
z
" id="DejaVuSans-99"/>
       <path d="M 45.40625 27.984375 
Q 45.40625 37.75 41.375 43.109375 
Q 37.359375 48.484375 30.078125 48.484375 
Q 22.859375 48.484375 18.828125 43.109375 
Q 14.796875 37.75 14.796875 27.984375 
Q 14.796875 18.265625 18.828125 12.890625 
Q 22.859375 7.515625 30.078125 7.515625 
Q 37.359375 7.515625 41.375 12.890625 
Q 45.40625 18.265625 45.40625 27.984375 
z
M 54.390625 6.78125 
Q 54.390625 -7.171875 48.1875 -13.984375 
Q 42 -20.796875 29.203125 -20.796875 
Q 24.46875 -20.796875 20.265625 -20.09375 
Q 16.0625 -19.390625 12.109375 -17.921875 
L 12.109375 -9.1875 
Q 16.0625 -11.328125 19.921875 -12.34375 
Q 23.78125 -13.375 27.78125 -13.375 
Q 36.625 -13.375 41.015625 -8.765625 
Q 45.40625 -4.15625 45.40625 5.171875 
L 45.40625 9.625 
Q 42.625 4.78125 38.28125 2.390625 
Q 33.9375 0 27.875 0 
Q 17.828125 0 11.671875 7.65625 
Q 5.515625 15.328125 5.515625 27.984375 
Q 5.515625 40.671875 11.671875 48.328125 
Q 17.828125 56 27.875 56 
Q 33.9375 56 38.28125 53.609375 
Q 42.625 51.21875 45.40625 46.390625 
L 45.40625 54.6875 
L 54.390625 54.6875 
z
" id="DejaVuSans-103"/>
      </defs>
      <g transform="translate(318.752098 404.290717)rotate(-45)scale(0.12 -0.12)">
       <use xlink:href="#DejaVuSans-77"/>
       <use x="86.279297" xlink:href="#DejaVuSans-105"/>
       <use x="114.0625" xlink:href="#DejaVuSans-99"/>
       <use x="169.042969" xlink:href="#DejaVuSans-104"/>
       <use x="232.421875" xlink:href="#DejaVuSans-105"/>
       <use x="260.205078" xlink:href="#DejaVuSans-103"/>
       <use x="323.681641" xlink:href="#DejaVuSans-97"/>
       <use x="384.960938" xlink:href="#DejaVuSans-110"/>
      </g>
     </g>
    </g>
    <g id="xtick_9">
     <g id="line2d_9">
      <g>
       <use style="stroke:#000000;stroke-width:0.8;" x="380.88" xlink:href="#m76091c3af3" y="352.8"/>
      </g>
     </g>
     <g id="text_9">
      <!-- North Carolina -->
      <defs>
       <path d="M 18.3125 70.21875 
L 18.3125 54.6875 
L 36.8125 54.6875 
L 36.8125 47.703125 
L 18.3125 47.703125 
L 18.3125 18.015625 
Q 18.3125 11.328125 20.140625 9.421875 
Q 21.96875 7.515625 27.59375 7.515625 
L 36.8125 7.515625 
L 36.8125 0 
L 27.59375 0 
Q 17.1875 0 13.234375 3.875 
Q 9.28125 7.765625 9.28125 18.015625 
L 9.28125 47.703125 
L 2.6875 47.703125 
L 2.6875 54.6875 
L 9.28125 54.6875 
L 9.28125 70.21875 
z
" id="DejaVuSans-116"/>
      </defs>
      <g transform="translate(317.591733 427.771081)rotate(-45)scale(0.12 -0.12)">
       <use xlink:href="#DejaVuSans-78"/>
       <use x="74.804688" xlink:href="#DejaVuSans-111"/>
       <use x="135.986328" xlink:href="#DejaVuSans-114"/>
       <use x="177.099609" xlink:href="#DejaVuSans-116"/>
       <use x="216.308594" xlink:href="#DejaVuSans-104"/>
       <use x="279.6875" xlink:href="#DejaVuSans-32"/>
       <use x="311.474609" xlink:href="#DejaVuSans-67"/>
       <use x="381.298828" xlink:href="#DejaVuSans-97"/>
       <use x="442.578125" xlink:href="#DejaVuSans-114"/>
       <use x="483.660156" xlink:href="#DejaVuSans-111"/>
       <use x="544.841797" xlink:href="#DejaVuSans-108"/>
       <use x="572.625" xlink:href="#DejaVuSans-105"/>
       <use x="600.408203" xlink:href="#DejaVuSans-110"/>
       <use x="663.787109" xlink:href="#DejaVuSans-97"/>
      </g>
     </g>
    </g>
    <g id="xtick_10">
     <g id="line2d_10">
      <g>
       <use style="stroke:#000000;stroke-width:0.8;" x="403.2" xlink:href="#m76091c3af3" y="352.8"/>
      </g>
     </g>
     <g id="text_10">
      <!-- Georgia -->
      <defs>
       <path d="M 59.515625 10.40625 
L 59.515625 29.984375 
L 43.40625 29.984375 
L 43.40625 38.09375 
L 69.28125 38.09375 
L 69.28125 6.78125 
Q 63.578125 2.734375 56.6875 0.65625 
Q 49.8125 -1.421875 42 -1.421875 
Q 24.90625 -1.421875 15.25 8.5625 
Q 5.609375 18.5625 5.609375 36.375 
Q 5.609375 54.25 15.25 64.234375 
Q 24.90625 74.21875 42 74.21875 
Q 49.125 74.21875 55.546875 72.453125 
Q 61.96875 70.703125 67.390625 67.28125 
L 67.390625 56.78125 
Q 61.921875 61.421875 55.765625 63.765625 
Q 49.609375 66.109375 42.828125 66.109375 
Q 29.4375 66.109375 22.71875 58.640625 
Q 16.015625 51.171875 16.015625 36.375 
Q 16.015625 21.625 22.71875 14.15625 
Q 29.4375 6.6875 42.828125 6.6875 
Q 48.046875 6.6875 52.140625 7.59375 
Q 56.25 8.5 59.515625 10.40625 
z
" id="DejaVuSans-71"/>
      </defs>
      <g transform="translate(368.016576 399.666238)rotate(-45)scale(0.12 -0.12)">
       <use xlink:href="#DejaVuSans-71"/>
       <use x="77.490234" xlink:href="#DejaVuSans-101"/>
       <use x="139.013672" xlink:href="#DejaVuSans-111"/>
       <use x="200.195312" xlink:href="#DejaVuSans-114"/>
       <use x="241.292969" xlink:href="#DejaVuSans-103"/>
       <use x="304.769531" xlink:href="#DejaVuSans-105"/>
       <use x="332.552734" xlink:href="#DejaVuSans-97"/>
      </g>
     </g>
    </g>
    <g id="xtick_11">
     <g id="line2d_11">
      <g>
       <use style="stroke:#000000;stroke-width:0.8;" x="425.52" xlink:href="#m76091c3af3" y="352.8"/>
      </g>
     </g>
     <g id="text_11">
      <!-- New Jersey -->
      <defs>
       <path d="M 9.8125 72.90625 
L 19.671875 72.90625 
L 19.671875 5.078125 
Q 19.671875 -8.109375 14.671875 -14.0625 
Q 9.671875 -20.015625 -1.421875 -20.015625 
L -5.171875 -20.015625 
L -5.171875 -11.71875 
L -2.09375 -11.71875 
Q 4.4375 -11.71875 7.125 -8.046875 
Q 9.8125 -4.390625 9.8125 5.078125 
z
" id="DejaVuSans-74"/>
      </defs>
      <g transform="translate(376.673947 413.328867)rotate(-45)scale(0.12 -0.12)">
       <use xlink:href="#DejaVuSans-78"/>
       <use x="74.804688" xlink:href="#DejaVuSans-101"/>
       <use x="136.328125" xlink:href="#DejaVuSans-119"/>
       <use x="218.115234" xlink:href="#DejaVuSans-32"/>
       <use x="249.902344" xlink:href="#DejaVuSans-74"/>
       <use x="279.394531" xlink:href="#DejaVuSans-101"/>
       <use x="340.917969" xlink:href="#DejaVuSans-114"/>
       <use x="382.03125" xlink:href="#DejaVuSans-115"/>
       <use x="434.130859" xlink:href="#DejaVuSans-101"/>
       <use x="495.654297" xlink:href="#DejaVuSans-121"/>
      </g>
     </g>
    </g>
    <g id="xtick_12">
     <g id="line2d_12">
      <g>
       <use style="stroke:#000000;stroke-width:0.8;" x="447.84" xlink:href="#m76091c3af3" y="352.8"/>
      </g>
     </g>
     <g id="text_12">
      <!-- Virginia -->
      <defs>
       <path d="M 28.609375 0 
L 0.78125 72.90625 
L 11.078125 72.90625 
L 34.1875 11.53125 
L 57.328125 72.90625 
L 67.578125 72.90625 
L 39.796875 0 
z
" id="DejaVuSans-86"/>
      </defs>
      <g transform="translate(413.750382 398.572433)rotate(-45)scale(0.12 -0.12)">
       <use xlink:href="#DejaVuSans-86"/>
       <use x="68.376953" xlink:href="#DejaVuSans-105"/>
       <use x="96.160156" xlink:href="#DejaVuSans-114"/>
       <use x="137.257812" xlink:href="#DejaVuSans-103"/>
       <use x="200.734375" xlink:href="#DejaVuSans-105"/>
       <use x="228.517578" xlink:href="#DejaVuSans-110"/>
       <use x="291.896484" xlink:href="#DejaVuSans-105"/>
       <use x="319.679688" xlink:href="#DejaVuSans-97"/>
      </g>
     </g>
    </g>
    <g id="xtick_13">
     <g id="line2d_13">
      <g>
       <use style="stroke:#000000;stroke-width:0.8;" x="470.16" xlink:href="#m76091c3af3" y="352.8"/>
      </g>
     </g>
     <g id="text_13">
      <!-- Washington -->
      <defs>
       <path d="M 3.328125 72.90625 
L 13.28125 72.90625 
L 28.609375 11.28125 
L 43.890625 72.90625 
L 54.984375 72.90625 
L 70.3125 11.28125 
L 85.59375 72.90625 
L 95.609375 72.90625 
L 77.296875 0 
L 64.890625 0 
L 49.515625 63.28125 
L 33.984375 0 
L 21.578125 0 
z
" id="DejaVuSans-87"/>
      </defs>
      <g transform="translate(417.998059 416.644756)rotate(-45)scale(0.12 -0.12)">
       <use xlink:href="#DejaVuSans-87"/>
       <use x="98.783203" xlink:href="#DejaVuSans-97"/>
       <use x="160.0625" xlink:href="#DejaVuSans-115"/>
       <use x="212.162109" xlink:href="#DejaVuSans-104"/>
       <use x="275.541016" xlink:href="#DejaVuSans-105"/>
       <use x="303.324219" xlink:href="#DejaVuSans-110"/>
       <use x="366.703125" xlink:href="#DejaVuSans-103"/>
       <use x="430.179688" xlink:href="#DejaVuSans-116"/>
       <use x="469.388672" xlink:href="#DejaVuSans-111"/>
       <use x="530.570312" xlink:href="#DejaVuSans-110"/>
      </g>
     </g>
    </g>
    <g id="xtick_14">
     <g id="line2d_14">
      <g>
       <use style="stroke:#000000;stroke-width:0.8;" x="492.48" xlink:href="#m76091c3af3" y="352.8"/>
      </g>
     </g>
     <g id="text_14">
      <!-- Arizona -->
      <defs>
       <path d="M 34.1875 63.1875 
L 20.796875 26.90625 
L 47.609375 26.90625 
z
M 28.609375 72.90625 
L 39.796875 72.90625 
L 67.578125 0 
L 57.328125 0 
L 50.6875 18.703125 
L 17.828125 18.703125 
L 11.1875 0 
L 0.78125 0 
z
" id="DejaVuSans-65"/>
       <path d="M 5.515625 54.6875 
L 48.1875 54.6875 
L 48.1875 46.484375 
L 14.40625 7.171875 
L 48.1875 7.171875 
L 48.1875 0 
L 4.296875 0 
L 4.296875 8.203125 
L 38.09375 47.515625 
L 5.515625 47.515625 
z
" id="DejaVuSans-122"/>
      </defs>
      <g transform="translate(458.842488 398.120326)rotate(-45)scale(0.12 -0.12)">
       <use xlink:href="#DejaVuSans-65"/>
       <use x="68.408203" xlink:href="#DejaVuSans-114"/>
       <use x="109.521484" xlink:href="#DejaVuSans-105"/>
       <use x="137.304688" xlink:href="#DejaVuSans-122"/>
       <use x="189.794922" xlink:href="#DejaVuSans-111"/>
       <use x="250.976562" xlink:href="#DejaVuSans-110"/>
       <use x="314.355469" xlink:href="#DejaVuSans-97"/>
      </g>
     </g>
    </g>
    <g id="xtick_15">
     <g id="line2d_15">
      <g>
       <use style="stroke:#000000;stroke-width:0.8;" x="514.8" xlink:href="#m76091c3af3" y="352.8"/>
      </g>
     </g>
     <g id="text_15">
      <!-- Tennessee -->
      <g transform="translate(467.395119 411.887695)rotate(-45)scale(0.12 -0.12)">
       <use xlink:href="#DejaVuSans-84"/>
       <use x="60.818359" xlink:href="#DejaVuSans-101"/>
       <use x="122.341797" xlink:href="#DejaVuSans-110"/>
       <use x="185.720703" xlink:href="#DejaVuSans-110"/>
       <use x="249.099609" xlink:href="#DejaVuSans-101"/>
       <use x="310.623047" xlink:href="#DejaVuSans-115"/>
       <use x="362.722656" xlink:href="#DejaVuSans-115"/>
       <use x="414.822266" xlink:href="#DejaVuSans-101"/>
       <use x="476.345703" xlink:href="#DejaVuSans-101"/>
      </g>
     </g>
    </g>
    <g id="xtick_16">
     <g id="line2d_16">
      <g>
       <use style="stroke:#000000;stroke-width:0.8;" x="537.12" xlink:href="#m76091c3af3" y="352.8"/>
      </g>
     </g>
     <g id="text_16">
      <!-- Massachusetts -->
      <defs>
       <path d="M 8.5 21.578125 
L 8.5 54.6875 
L 17.484375 54.6875 
L 17.484375 21.921875 
Q 17.484375 14.15625 20.5 10.265625 
Q 23.53125 6.390625 29.59375 6.390625 
Q 36.859375 6.390625 41.078125 11.03125 
Q 45.3125 15.671875 45.3125 23.6875 
L 45.3125 54.6875 
L 54.296875 54.6875 
L 54.296875 0 
L 45.3125 0 
L 45.3125 8.40625 
Q 42.046875 3.421875 37.71875 1 
Q 33.40625 -1.421875 27.6875 -1.421875 
Q 18.265625 -1.421875 13.375 4.4375 
Q 8.5 10.296875 8.5 21.578125 
z
M 31.109375 56 
z
" id="DejaVuSans-117"/>
      </defs>
      <g transform="translate(472.658378 428.944437)rotate(-45)scale(0.12 -0.12)">
       <use xlink:href="#DejaVuSans-77"/>
       <use x="86.279297" xlink:href="#DejaVuSans-97"/>
       <use x="147.558594" xlink:href="#DejaVuSans-115"/>
       <use x="199.658203" xlink:href="#DejaVuSans-115"/>
       <use x="251.757812" xlink:href="#DejaVuSans-97"/>
       <use x="313.037109" xlink:href="#DejaVuSans-99"/>
       <use x="368.017578" xlink:href="#DejaVuSans-104"/>
       <use x="431.396484" xlink:href="#DejaVuSans-117"/>
       <use x="494.775391" xlink:href="#DejaVuSans-115"/>
       <use x="546.875" xlink:href="#DejaVuSans-101"/>
       <use x="608.398438" xlink:href="#DejaVuSans-116"/>
       <use x="647.607422" xlink:href="#DejaVuSans-116"/>
       <use x="686.816406" xlink:href="#DejaVuSans-115"/>
      </g>
     </g>
    </g>
    <g id="xtick_17">
     <g id="line2d_17">
      <g>
       <use style="stroke:#000000;stroke-width:0.8;" x="559.44" xlink:href="#m76091c3af3" y="352.8"/>
      </g>
     </g>
     <g id="text_17">
      <!-- Indiana -->
      <g transform="translate(526.273156 397.649658)rotate(-45)scale(0.12 -0.12)">
       <use xlink:href="#DejaVuSans-73"/>
       <use x="29.492188" xlink:href="#DejaVuSans-110"/>
       <use x="92.871094" xlink:href="#DejaVuSans-100"/>
       <use x="156.347656" xlink:href="#DejaVuSans-105"/>
       <use x="184.130859" xlink:href="#DejaVuSans-97"/>
       <use x="245.410156" xlink:href="#DejaVuSans-110"/>
       <use x="308.789062" xlink:href="#DejaVuSans-97"/>
      </g>
     </g>
    </g>
    <g id="xtick_18">
     <g id="line2d_18">
      <g>
       <use style="stroke:#000000;stroke-width:0.8;" x="581.76" xlink:href="#m76091c3af3" y="352.8"/>
      </g>
     </g>
     <g id="text_18">
      <!-- Missouri -->
      <g transform="translate(545.061158 401.181657)rotate(-45)scale(0.12 -0.12)">
       <use xlink:href="#DejaVuSans-77"/>
       <use x="86.279297" xlink:href="#DejaVuSans-105"/>
       <use x="114.0625" xlink:href="#DejaVuSans-115"/>
       <use x="166.162109" xlink:href="#DejaVuSans-115"/>
       <use x="218.261719" xlink:href="#DejaVuSans-111"/>
       <use x="279.443359" xlink:href="#DejaVuSans-117"/>
       <use x="342.822266" xlink:href="#DejaVuSans-114"/>
       <use x="383.935547" xlink:href="#DejaVuSans-105"/>
      </g>
     </g>
    </g>
    <g id="xtick_19">
     <g id="line2d_19">
      <g>
       <use style="stroke:#000000;stroke-width:0.8;" x="604.08" xlink:href="#m76091c3af3" y="352.8"/>
      </g>
     </g>
     <g id="text_19">
      <!-- Wisconsin -->
      <g transform="translate(559.760315 408.8025)rotate(-45)scale(0.12 -0.12)">
       <use xlink:href="#DejaVuSans-87"/>
       <use x="98.845703" xlink:href="#DejaVuSans-105"/>
       <use x="126.628906" xlink:href="#DejaVuSans-115"/>
       <use x="178.728516" xlink:href="#DejaVuSans-99"/>
       <use x="233.708984" xlink:href="#DejaVuSans-111"/>
       <use x="294.890625" xlink:href="#DejaVuSans-110"/>
       <use x="358.269531" xlink:href="#DejaVuSans-115"/>
       <use x="410.369141" xlink:href="#DejaVuSans-105"/>
       <use x="438.152344" xlink:href="#DejaVuSans-110"/>
      </g>
     </g>
    </g>
    <g id="xtick_20">
     <g id="line2d_20">
      <g>
       <use style="stroke:#000000;stroke-width:0.8;" x="626.4" xlink:href="#m76091c3af3" y="352.8"/>
      </g>
     </g>
     <g id="text_20">
      <!-- Maryland -->
      <g transform="translate(585.282183 405.600632)rotate(-45)scale(0.12 -0.12)">
       <use xlink:href="#DejaVuSans-77"/>
       <use x="86.279297" xlink:href="#DejaVuSans-97"/>
       <use x="147.558594" xlink:href="#DejaVuSans-114"/>
       <use x="188.671875" xlink:href="#DejaVuSans-121"/>
       <use x="247.851562" xlink:href="#DejaVuSans-108"/>
       <use x="275.634766" xlink:href="#DejaVuSans-97"/>
       <use x="336.914062" xlink:href="#DejaVuSans-110"/>
       <use x="400.292969" xlink:href="#DejaVuSans-100"/>
      </g>
     </g>
    </g>
    <g id="xtick_21">
     <g id="line2d_21">
      <g>
       <use style="stroke:#000000;stroke-width:0.8;" x="648.72" xlink:href="#m76091c3af3" y="352.8"/>
      </g>
     </g>
     <g id="text_21">
      <!-- Minnesota -->
      <g transform="translate(603.161994 410.040821)rotate(-45)scale(0.12 -0.12)">
       <use xlink:href="#DejaVuSans-77"/>
       <use x="86.279297" xlink:href="#DejaVuSans-105"/>
       <use x="114.0625" xlink:href="#DejaVuSans-110"/>
       <use x="177.441406" xlink:href="#DejaVuSans-110"/>
       <use x="240.820312" xlink:href="#DejaVuSans-101"/>
       <use x="302.34375" xlink:href="#DejaVuSans-115"/>
       <use x="354.443359" xlink:href="#DejaVuSans-111"/>
       <use x="415.625" xlink:href="#DejaVuSans-116"/>
       <use x="454.833984" xlink:href="#DejaVuSans-97"/>
      </g>
     </g>
    </g>
    <g id="xtick_22">
     <g id="line2d_22">
      <g>
       <use style="stroke:#000000;stroke-width:0.8;" x="671.04" xlink:href="#m76091c3af3" y="352.8"/>
      </g>
     </g>
     <g id="text_22">
      <!-- Colorado -->
      <g transform="translate(631.342141 404.180673)rotate(-45)scale(0.12 -0.12)">
       <use xlink:href="#DejaVuSans-67"/>
       <use x="69.824219" xlink:href="#DejaVuSans-111"/>
       <use x="131.005859" xlink:href="#DejaVuSans-108"/>
       <use x="158.789062" xlink:href="#DejaVuSans-111"/>
       <use x="219.970703" xlink:href="#DejaVuSans-114"/>
       <use x="261.083984" xlink:href="#DejaVuSans-97"/>
       <use x="322.363281" xlink:href="#DejaVuSans-100"/>
       <use x="385.839844" xlink:href="#DejaVuSans-111"/>
      </g>
     </g>
    </g>
    <g id="xtick_23">
     <g id="line2d_23">
      <g>
       <use style="stroke:#000000;stroke-width:0.8;" x="693.36" xlink:href="#m76091c3af3" y="352.8"/>
      </g>
     </g>
     <g id="text_23">
      <!-- Alabama -->
      <defs>
       <path d="M 48.6875 27.296875 
Q 48.6875 37.203125 44.609375 42.84375 
Q 40.53125 48.484375 33.40625 48.484375 
Q 26.265625 48.484375 22.1875 42.84375 
Q 18.109375 37.203125 18.109375 27.296875 
Q 18.109375 17.390625 22.1875 11.75 
Q 26.265625 6.109375 33.40625 6.109375 
Q 40.53125 6.109375 44.609375 11.75 
Q 48.6875 17.390625 48.6875 27.296875 
z
M 18.109375 46.390625 
Q 20.953125 51.265625 25.265625 53.625 
Q 29.59375 56 35.59375 56 
Q 45.5625 56 51.78125 48.09375 
Q 58.015625 40.1875 58.015625 27.296875 
Q 58.015625 14.40625 51.78125 6.484375 
Q 45.5625 -1.421875 35.59375 -1.421875 
Q 29.59375 -1.421875 25.265625 0.953125 
Q 20.953125 3.328125 18.109375 8.203125 
L 18.109375 0 
L 9.078125 0 
L 9.078125 75.984375 
L 18.109375 75.984375 
z
" id="DejaVuSans-98"/>
       <path d="M 52 44.1875 
Q 55.375 50.25 60.0625 53.125 
Q 64.75 56 71.09375 56 
Q 79.640625 56 84.28125 50.015625 
Q 88.921875 44.046875 88.921875 33.015625 
L 88.921875 0 
L 79.890625 0 
L 79.890625 32.71875 
Q 79.890625 40.578125 77.09375 44.375 
Q 74.3125 48.1875 68.609375 48.1875 
Q 61.625 48.1875 57.5625 43.546875 
Q 53.515625 38.921875 53.515625 30.90625 
L 53.515625 0 
L 44.484375 0 
L 44.484375 32.71875 
Q 44.484375 40.625 41.703125 44.40625 
Q 38.921875 48.1875 33.109375 48.1875 
Q 26.21875 48.1875 22.15625 43.53125 
Q 18.109375 38.875 18.109375 30.90625 
L 18.109375 0 
L 9.078125 0 
L 9.078125 54.6875 
L 18.109375 54.6875 
L 18.109375 46.1875 
Q 21.1875 51.21875 25.484375 53.609375 
Q 29.78125 56 35.6875 56 
Q 41.65625 56 45.828125 52.96875 
Q 50 49.953125 52 44.1875 
z
" id="DejaVuSans-109"/>
      </defs>
      <g transform="translate(654.181865 403.66095)rotate(-45)scale(0.12 -0.12)">
       <use xlink:href="#DejaVuSans-65"/>
       <use x="68.408203" xlink:href="#DejaVuSans-108"/>
       <use x="96.191406" xlink:href="#DejaVuSans-97"/>
       <use x="157.470703" xlink:href="#DejaVuSans-98"/>
       <use x="220.947266" xlink:href="#DejaVuSans-97"/>
       <use x="282.226562" xlink:href="#DejaVuSans-109"/>
       <use x="379.638672" xlink:href="#DejaVuSans-97"/>
      </g>
     </g>
    </g>
    <g id="xtick_24">
     <g id="line2d_24">
      <g>
       <use style="stroke:#000000;stroke-width:0.8;" x="715.68" xlink:href="#m76091c3af3" y="352.8"/>
      </g>
     </g>
     <g id="text_24">
      <!-- South Carolina -->
      <defs>
       <path d="M 53.515625 70.515625 
L 53.515625 60.890625 
Q 47.90625 63.578125 42.921875 64.890625 
Q 37.9375 66.21875 33.296875 66.21875 
Q 25.25 66.21875 20.875 63.09375 
Q 16.5 59.96875 16.5 54.203125 
Q 16.5 49.359375 19.40625 46.890625 
Q 22.3125 44.4375 30.421875 42.921875 
L 36.375 41.703125 
Q 47.40625 39.59375 52.65625 34.296875 
Q 57.90625 29 57.90625 20.125 
Q 57.90625 9.515625 50.796875 4.046875 
Q 43.703125 -1.421875 29.984375 -1.421875 
Q 24.8125 -1.421875 18.96875 -0.25 
Q 13.140625 0.921875 6.890625 3.21875 
L 6.890625 13.375 
Q 12.890625 10.015625 18.65625 8.296875 
Q 24.421875 6.59375 29.984375 6.59375 
Q 38.421875 6.59375 43.015625 9.90625 
Q 47.609375 13.234375 47.609375 19.390625 
Q 47.609375 24.75 44.3125 27.78125 
Q 41.015625 30.8125 33.5 32.328125 
L 27.484375 33.5 
Q 16.453125 35.6875 11.515625 40.375 
Q 6.59375 45.0625 6.59375 53.421875 
Q 6.59375 63.09375 13.40625 68.65625 
Q 20.21875 74.21875 32.171875 74.21875 
Q 37.3125 74.21875 42.625 73.28125 
Q 47.953125 72.359375 53.515625 70.515625 
z
" id="DejaVuSans-83"/>
      </defs>
      <g transform="translate(651.463656 428.699159)rotate(-45)scale(0.12 -0.12)">
       <use xlink:href="#DejaVuSans-83"/>
       <use x="63.476562" xlink:href="#DejaVuSans-111"/>
       <use x="124.658203" xlink:href="#DejaVuSans-117"/>
       <use x="188.037109" xlink:href="#DejaVuSans-116"/>
       <use x="227.246094" xlink:href="#DejaVuSans-104"/>
       <use x="290.625" xlink:href="#DejaVuSans-32"/>
       <use x="322.412109" xlink:href="#DejaVuSans-67"/>
       <use x="392.236328" xlink:href="#DejaVuSans-97"/>
       <use x="453.515625" xlink:href="#DejaVuSans-114"/>
       <use x="494.597656" xlink:href="#DejaVuSans-111"/>
       <use x="555.779297" xlink:href="#DejaVuSans-108"/>
       <use x="583.5625" xlink:href="#DejaVuSans-105"/>
       <use x="611.345703" xlink:href="#DejaVuSans-110"/>
       <use x="674.724609" xlink:href="#DejaVuSans-97"/>
      </g>
     </g>
    </g>
    <g id="xtick_25">
     <g id="line2d_25">
      <g>
       <use style="stroke:#000000;stroke-width:0.8;" x="738" xlink:href="#m76091c3af3" y="352.8"/>
      </g>
     </g>
     <g id="text_25">
      <!-- Louisiana -->
      <defs>
       <path d="M 9.8125 72.90625 
L 19.671875 72.90625 
L 19.671875 8.296875 
L 55.171875 8.296875 
L 55.171875 0 
L 9.8125 0 
z
" id="DejaVuSans-76"/>
      </defs>
      <g transform="translate(696.027025 406.455789)rotate(-45)scale(0.12 -0.12)">
       <use xlink:href="#DejaVuSans-76"/>
       <use x="55.697266" xlink:href="#DejaVuSans-111"/>
       <use x="116.878906" xlink:href="#DejaVuSans-117"/>
       <use x="180.257812" xlink:href="#DejaVuSans-105"/>
       <use x="208.041016" xlink:href="#DejaVuSans-115"/>
       <use x="260.140625" xlink:href="#DejaVuSans-105"/>
       <use x="287.923828" xlink:href="#DejaVuSans-97"/>
       <use x="349.203125" xlink:href="#DejaVuSans-110"/>
       <use x="412.582031" xlink:href="#DejaVuSans-97"/>
      </g>
     </g>
    </g>
    <g id="xtick_26">
     <g id="line2d_26">
      <g>
       <use style="stroke:#000000;stroke-width:0.8;" x="760.32" xlink:href="#m76091c3af3" y="352.8"/>
      </g>
     </g>
     <g id="text_26">
      <!-- Kentucky -->
      <defs>
       <path d="M 9.8125 72.90625 
L 19.671875 72.90625 
L 19.671875 42.09375 
L 52.390625 72.90625 
L 65.09375 72.90625 
L 28.90625 38.921875 
L 67.671875 0 
L 54.6875 0 
L 19.671875 35.109375 
L 19.671875 0 
L 9.8125 0 
z
" id="DejaVuSans-75"/>
      </defs>
      <g transform="translate(719.097442 405.705372)rotate(-45)scale(0.12 -0.12)">
       <use xlink:href="#DejaVuSans-75"/>
       <use x="65.498047" xlink:href="#DejaVuSans-101"/>
       <use x="127.021484" xlink:href="#DejaVuSans-110"/>
       <use x="190.400391" xlink:href="#DejaVuSans-116"/>
       <use x="229.609375" xlink:href="#DejaVuSans-117"/>
       <use x="292.988281" xlink:href="#DejaVuSans-99"/>
       <use x="347.96875" xlink:href="#DejaVuSans-107"/>
       <use x="405.832031" xlink:href="#DejaVuSans-121"/>
      </g>
     </g>
    </g>
    <g id="xtick_27">
     <g id="line2d_27">
      <g>
       <use style="stroke:#000000;stroke-width:0.8;" x="782.64" xlink:href="#m76091c3af3" y="352.8"/>
      </g>
     </g>
     <g id="text_27">
      <!-- Oregon -->
      <g transform="translate(749.532819 397.589996)rotate(-45)scale(0.12 -0.12)">
       <use xlink:href="#DejaVuSans-79"/>
       <use x="78.710938" xlink:href="#DejaVuSans-114"/>
       <use x="119.792969" xlink:href="#DejaVuSans-101"/>
       <use x="181.316406" xlink:href="#DejaVuSans-103"/>
       <use x="244.792969" xlink:href="#DejaVuSans-111"/>
       <use x="305.974609" xlink:href="#DejaVuSans-110"/>
      </g>
     </g>
    </g>
    <g id="xtick_28">
     <g id="line2d_28">
      <g>
       <use style="stroke:#000000;stroke-width:0.8;" x="804.96" xlink:href="#m76091c3af3" y="352.8"/>
      </g>
     </g>
     <g id="text_28">
      <!-- Oklahoma -->
      <g transform="translate(760.010548 409.432267)rotate(-45)scale(0.12 -0.12)">
       <use xlink:href="#DejaVuSans-79"/>
       <use x="78.710938" xlink:href="#DejaVuSans-107"/>
       <use x="136.621094" xlink:href="#DejaVuSans-108"/>
       <use x="164.404297" xlink:href="#DejaVuSans-97"/>
       <use x="225.683594" xlink:href="#DejaVuSans-104"/>
       <use x="289.0625" xlink:href="#DejaVuSans-111"/>
       <use x="350.244141" xlink:href="#DejaVuSans-109"/>
       <use x="447.65625" xlink:href="#DejaVuSans-97"/>
      </g>
     </g>
    </g>
    <g id="xtick_29">
     <g id="line2d_29">
      <g>
       <use style="stroke:#000000;stroke-width:0.8;" x="827.28" xlink:href="#m76091c3af3" y="352.8"/>
      </g>
     </g>
     <g id="text_29">
      <!-- Connecticut -->
      <g transform="translate(774.703075 417.059739)rotate(-45)scale(0.12 -0.12)">
       <use xlink:href="#DejaVuSans-67"/>
       <use x="69.824219" xlink:href="#DejaVuSans-111"/>
       <use x="131.005859" xlink:href="#DejaVuSans-110"/>
       <use x="194.384766" xlink:href="#DejaVuSans-110"/>
       <use x="257.763672" xlink:href="#DejaVuSans-101"/>
       <use x="319.287109" xlink:href="#DejaVuSans-99"/>
       <use x="374.267578" xlink:href="#DejaVuSans-116"/>
       <use x="413.476562" xlink:href="#DejaVuSans-105"/>
       <use x="441.259766" xlink:href="#DejaVuSans-99"/>
       <use x="496.240234" xlink:href="#DejaVuSans-117"/>
       <use x="559.619141" xlink:href="#DejaVuSans-116"/>
      </g>
     </g>
    </g>
    <g id="xtick_30">
     <g id="line2d_30">
      <g>
       <use style="stroke:#000000;stroke-width:0.8;" x="849.6" xlink:href="#m76091c3af3" y="352.8"/>
      </g>
     </g>
     <g id="text_30">
      <!-- Iowa -->
      <g transform="translate(828.000981 386.081833)rotate(-45)scale(0.12 -0.12)">
       <use xlink:href="#DejaVuSans-73"/>
       <use x="29.492188" xlink:href="#DejaVuSans-111"/>
       <use x="90.673828" xlink:href="#DejaVuSans-119"/>
       <use x="172.460938" xlink:href="#DejaVuSans-97"/>
      </g>
     </g>
    </g>
    <g id="xtick_31">
     <g id="line2d_31">
      <g>
       <use style="stroke:#000000;stroke-width:0.8;" x="871.92" xlink:href="#m76091c3af3" y="352.8"/>
      </g>
     </g>
     <g id="text_31">
      <!-- Arkansas -->
      <g transform="translate(831.332513 405.070302)rotate(-45)scale(0.12 -0.12)">
       <use xlink:href="#DejaVuSans-65"/>
       <use x="68.408203" xlink:href="#DejaVuSans-114"/>
       <use x="109.521484" xlink:href="#DejaVuSans-107"/>
       <use x="167.416016" xlink:href="#DejaVuSans-97"/>
       <use x="228.695312" xlink:href="#DejaVuSans-110"/>
       <use x="292.074219" xlink:href="#DejaVuSans-115"/>
       <use x="344.173828" xlink:href="#DejaVuSans-97"/>
       <use x="405.453125" xlink:href="#DejaVuSans-115"/>
      </g>
     </g>
    </g>
    <g id="xtick_32">
     <g id="line2d_32">
      <g>
       <use style="stroke:#000000;stroke-width:0.8;" x="894.24" xlink:href="#m76091c3af3" y="352.8"/>
      </g>
     </g>
     <g id="text_32">
      <!-- Mississippi -->
      <defs>
       <path d="M 18.109375 8.203125 
L 18.109375 -20.796875 
L 9.078125 -20.796875 
L 9.078125 54.6875 
L 18.109375 54.6875 
L 18.109375 46.390625 
Q 20.953125 51.265625 25.265625 53.625 
Q 29.59375 56 35.59375 56 
Q 45.5625 56 51.78125 48.09375 
Q 58.015625 40.1875 58.015625 27.296875 
Q 58.015625 14.40625 51.78125 6.484375 
Q 45.5625 -1.421875 35.59375 -1.421875 
Q 29.59375 -1.421875 25.265625 0.953125 
Q 20.953125 3.328125 18.109375 8.203125 
z
M 48.6875 27.296875 
Q 48.6875 37.203125 44.609375 42.84375 
Q 40.53125 48.484375 33.40625 48.484375 
Q 26.265625 48.484375 22.1875 42.84375 
Q 18.109375 37.203125 18.109375 27.296875 
Q 18.109375 17.390625 22.1875 11.75 
Q 26.265625 6.109375 33.40625 6.109375 
Q 40.53125 6.109375 44.609375 11.75 
Q 48.6875 17.390625 48.6875 27.296875 
z
" id="DejaVuSans-112"/>
      </defs>
      <g transform="translate(847.26999 411.452825)rotate(-45)scale(0.12 -0.12)">
       <use xlink:href="#DejaVuSans-77"/>
       <use x="86.279297" xlink:href="#DejaVuSans-105"/>
       <use x="114.0625" xlink:href="#DejaVuSans-115"/>
       <use x="166.162109" xlink:href="#DejaVuSans-115"/>
       <use x="218.261719" xlink:href="#DejaVuSans-105"/>
       <use x="246.044922" xlink:href="#DejaVuSans-115"/>
       <use x="298.144531" xlink:href="#DejaVuSans-115"/>
       <use x="350.244141" xlink:href="#DejaVuSans-105"/>
       <use x="378.027344" xlink:href="#DejaVuSans-112"/>
       <use x="441.503906" xlink:href="#DejaVuSans-112"/>
       <use x="504.980469" xlink:href="#DejaVuSans-105"/>
      </g>
     </g>
    </g>
    <g id="xtick_33">
     <g id="line2d_33">
      <g>
       <use style="stroke:#000000;stroke-width:0.8;" x="916.56" xlink:href="#m76091c3af3" y="352.8"/>
      </g>
     </g>
     <g id="text_33">
      <!-- Kansas -->
      <g transform="translate(884.614241 396.428573)rotate(-45)scale(0.12 -0.12)">
       <use xlink:href="#DejaVuSans-75"/>
       <use x="65.560547" xlink:href="#DejaVuSans-97"/>
       <use x="126.839844" xlink:href="#DejaVuSans-110"/>
       <use x="190.21875" xlink:href="#DejaVuSans-115"/>
       <use x="242.318359" xlink:href="#DejaVuSans-97"/>
       <use x="303.597656" xlink:href="#DejaVuSans-115"/>
      </g>
     </g>
    </g>
    <g id="xtick_34">
     <g id="line2d_34">
      <g>
       <use style="stroke:#000000;stroke-width:0.8;" x="938.88" xlink:href="#m76091c3af3" y="352.8"/>
      </g>
     </g>
     <g id="text_34">
      <!-- Nevada -->
      <g transform="translate(904.737349 398.625466)rotate(-45)scale(0.12 -0.12)">
       <use xlink:href="#DejaVuSans-78"/>
       <use x="74.804688" xlink:href="#DejaVuSans-101"/>
       <use x="136.328125" xlink:href="#DejaVuSans-118"/>
       <use x="195.507812" xlink:href="#DejaVuSans-97"/>
       <use x="256.787109" xlink:href="#DejaVuSans-100"/>
       <use x="320.263672" xlink:href="#DejaVuSans-97"/>
      </g>
     </g>
    </g>
    <g id="xtick_35">
     <g id="line2d_35">
      <g>
       <use style="stroke:#000000;stroke-width:0.8;" x="961.2" xlink:href="#m76091c3af3" y="352.8"/>
      </g>
     </g>
     <g id="text_35">
      <!-- Utah -->
      <defs>
       <path d="M 8.6875 72.90625 
L 18.609375 72.90625 
L 18.609375 28.609375 
Q 18.609375 16.890625 22.84375 11.734375 
Q 27.09375 6.59375 36.625 6.59375 
Q 46.09375 6.59375 50.34375 11.734375 
Q 54.59375 16.890625 54.59375 28.609375 
L 54.59375 72.90625 
L 64.5 72.90625 
L 64.5 27.390625 
Q 64.5 13.140625 57.4375 5.859375 
Q 50.390625 -1.421875 36.625 -1.421875 
Q 22.796875 -1.421875 15.734375 5.859375 
Q 8.6875 13.140625 8.6875 27.390625 
z
" id="DejaVuSans-85"/>
      </defs>
      <g transform="translate(939.321232 386.361582)rotate(-45)scale(0.12 -0.12)">
       <use xlink:href="#DejaVuSans-85"/>
       <use x="73.193359" xlink:href="#DejaVuSans-116"/>
       <use x="112.402344" xlink:href="#DejaVuSans-97"/>
       <use x="173.681641" xlink:href="#DejaVuSans-104"/>
      </g>
     </g>
    </g>
    <g id="xtick_36">
     <g id="line2d_36">
      <g>
       <use style="stroke:#000000;stroke-width:0.8;" x="983.52" xlink:href="#m76091c3af3" y="352.8"/>
      </g>
     </g>
     <g id="text_36">
      <!-- New Mexico -->
      <g transform="translate(930.772044 417.230771)rotate(-45)scale(0.12 -0.12)">
       <use xlink:href="#DejaVuSans-78"/>
       <use x="74.804688" xlink:href="#DejaVuSans-101"/>
       <use x="136.328125" xlink:href="#DejaVuSans-119"/>
       <use x="218.115234" xlink:href="#DejaVuSans-32"/>
       <use x="249.902344" xlink:href="#DejaVuSans-77"/>
       <use x="336.181641" xlink:href="#DejaVuSans-101"/>
       <use x="397.689453" xlink:href="#DejaVuSans-120"/>
       <use x="456.869141" xlink:href="#DejaVuSans-105"/>
       <use x="484.652344" xlink:href="#DejaVuSans-99"/>
       <use x="539.632812" xlink:href="#DejaVuSans-111"/>
      </g>
     </g>
    </g>
    <g id="xtick_37">
     <g id="line2d_37">
      <g>
       <use style="stroke:#000000;stroke-width:0.8;" x="1005.84" xlink:href="#m76091c3af3" y="352.8"/>
      </g>
     </g>
     <g id="text_37">
      <!-- West Virginia -->
      <g transform="translate(947.702564 422.62025)rotate(-45)scale(0.12 -0.12)">
       <use xlink:href="#DejaVuSans-87"/>
       <use x="98.798828" xlink:href="#DejaVuSans-101"/>
       <use x="160.322266" xlink:href="#DejaVuSans-115"/>
       <use x="212.421875" xlink:href="#DejaVuSans-116"/>
       <use x="251.630859" xlink:href="#DejaVuSans-32"/>
       <use x="283.417969" xlink:href="#DejaVuSans-86"/>
       <use x="351.794922" xlink:href="#DejaVuSans-105"/>
       <use x="379.578125" xlink:href="#DejaVuSans-114"/>
       <use x="420.675781" xlink:href="#DejaVuSans-103"/>
       <use x="484.152344" xlink:href="#DejaVuSans-105"/>
       <use x="511.935547" xlink:href="#DejaVuSans-110"/>
       <use x="575.314453" xlink:href="#DejaVuSans-105"/>
       <use x="603.097656" xlink:href="#DejaVuSans-97"/>
      </g>
     </g>
    </g>
    <g id="xtick_38">
     <g id="line2d_38">
      <g>
       <use style="stroke:#000000;stroke-width:0.8;" x="1028.16" xlink:href="#m76091c3af3" y="352.8"/>
      </g>
     </g>
     <g id="text_38">
      <!-- Nebraska -->
      <g transform="translate(986.218845 406.42397)rotate(-45)scale(0.12 -0.12)">
       <use xlink:href="#DejaVuSans-78"/>
       <use x="74.804688" xlink:href="#DejaVuSans-101"/>
       <use x="136.328125" xlink:href="#DejaVuSans-98"/>
       <use x="199.804688" xlink:href="#DejaVuSans-114"/>
       <use x="240.917969" xlink:href="#DejaVuSans-97"/>
       <use x="302.197266" xlink:href="#DejaVuSans-115"/>
       <use x="354.296875" xlink:href="#DejaVuSans-107"/>
       <use x="412.191406" xlink:href="#DejaVuSans-97"/>
      </g>
     </g>
    </g>
    <g id="xtick_39">
     <g id="line2d_39">
      <g>
       <use style="stroke:#000000;stroke-width:0.8;" x="1050.48" xlink:href="#m76091c3af3" y="352.8"/>
      </g>
     </g>
     <g id="text_39">
      <!-- Maine -->
      <g transform="translate(1023.238269 391.724545)rotate(-45)scale(0.12 -0.12)">
       <use xlink:href="#DejaVuSans-77"/>
       <use x="86.279297" xlink:href="#DejaVuSans-97"/>
       <use x="147.558594" xlink:href="#DejaVuSans-105"/>
       <use x="175.341797" xlink:href="#DejaVuSans-110"/>
       <use x="238.720703" xlink:href="#DejaVuSans-101"/>
      </g>
     </g>
    </g>
    <g id="xtick_40">
     <g id="line2d_40">
      <g>
       <use style="stroke:#000000;stroke-width:0.8;" x="1072.8" xlink:href="#m76091c3af3" y="352.8"/>
      </g>
     </g>
     <g id="text_40">
      <!-- Idaho -->
      <g transform="translate(1047.375976 389.906839)rotate(-45)scale(0.12 -0.12)">
       <use xlink:href="#DejaVuSans-73"/>
       <use x="29.492188" xlink:href="#DejaVuSans-100"/>
       <use x="92.96875" xlink:href="#DejaVuSans-97"/>
       <use x="154.248047" xlink:href="#DejaVuSans-104"/>
       <use x="217.626953" xlink:href="#DejaVuSans-111"/>
      </g>
     </g>
    </g>
    <g id="xtick_41">
     <g id="line2d_41">
      <g>
       <use style="stroke:#000000;stroke-width:0.8;" x="1095.12" xlink:href="#m76091c3af3" y="352.8"/>
      </g>
     </g>
     <g id="text_41">
      <!-- New Hampshire -->
      <defs>
       <path d="M 9.8125 72.90625 
L 19.671875 72.90625 
L 19.671875 43.015625 
L 55.515625 43.015625 
L 55.515625 72.90625 
L 65.375 72.90625 
L 65.375 0 
L 55.515625 0 
L 55.515625 34.71875 
L 19.671875 34.71875 
L 19.671875 0 
L 9.8125 0 
z
" id="DejaVuSans-72"/>
      </defs>
      <g transform="translate(1026.055113 433.547702)rotate(-45)scale(0.12 -0.12)">
       <use xlink:href="#DejaVuSans-78"/>
       <use x="74.804688" xlink:href="#DejaVuSans-101"/>
       <use x="136.328125" xlink:href="#DejaVuSans-119"/>
       <use x="218.115234" xlink:href="#DejaVuSans-32"/>
       <use x="249.902344" xlink:href="#DejaVuSans-72"/>
       <use x="325.097656" xlink:href="#DejaVuSans-97"/>
       <use x="386.376953" xlink:href="#DejaVuSans-109"/>
       <use x="483.789062" xlink:href="#DejaVuSans-112"/>
       <use x="547.265625" xlink:href="#DejaVuSans-115"/>
       <use x="599.365234" xlink:href="#DejaVuSans-104"/>
       <use x="662.744141" xlink:href="#DejaVuSans-105"/>
       <use x="690.527344" xlink:href="#DejaVuSans-114"/>
       <use x="731.609375" xlink:href="#DejaVuSans-101"/>
      </g>
     </g>
    </g>
    <g id="xtick_42">
     <g id="line2d_42">
      <g>
       <use style="stroke:#000000;stroke-width:0.8;" x="1117.44" xlink:href="#m76091c3af3" y="352.8"/>
      </g>
     </g>
     <g id="text_42">
      <!-- Montana -->
      <g transform="translate(1078.680826 403.241989)rotate(-45)scale(0.12 -0.12)">
       <use xlink:href="#DejaVuSans-77"/>
       <use x="86.279297" xlink:href="#DejaVuSans-111"/>
       <use x="147.460938" xlink:href="#DejaVuSans-110"/>
       <use x="210.839844" xlink:href="#DejaVuSans-116"/>
       <use x="250.048828" xlink:href="#DejaVuSans-97"/>
       <use x="311.328125" xlink:href="#DejaVuSans-110"/>
       <use x="374.707031" xlink:href="#DejaVuSans-97"/>
      </g>
     </g>
    </g>
    <g id="xtick_43">
     <g id="line2d_43">
      <g>
       <use style="stroke:#000000;stroke-width:0.8;" x="1139.76" xlink:href="#m76091c3af3" y="352.8"/>
      </g>
     </g>
     <g id="text_43">
      <!-- Rhode Island -->
      <defs>
       <path d="M 44.390625 34.1875 
Q 47.5625 33.109375 50.5625 29.59375 
Q 53.5625 26.078125 56.59375 19.921875 
L 66.609375 0 
L 56 0 
L 46.6875 18.703125 
Q 43.0625 26.03125 39.671875 28.421875 
Q 36.28125 30.8125 30.421875 30.8125 
L 19.671875 30.8125 
L 19.671875 0 
L 9.8125 0 
L 9.8125 72.90625 
L 32.078125 72.90625 
Q 44.578125 72.90625 50.734375 67.671875 
Q 56.890625 62.453125 56.890625 51.90625 
Q 56.890625 45.015625 53.6875 40.46875 
Q 50.484375 35.9375 44.390625 34.1875 
z
M 19.671875 64.796875 
L 19.671875 38.921875 
L 32.078125 38.921875 
Q 39.203125 38.921875 42.84375 42.21875 
Q 46.484375 45.515625 46.484375 51.90625 
Q 46.484375 58.296875 42.84375 61.546875 
Q 39.203125 64.796875 32.078125 64.796875 
z
" id="DejaVuSans-82"/>
      </defs>
      <g transform="translate(1082.980209 421.262605)rotate(-45)scale(0.12 -0.12)">
       <use xlink:href="#DejaVuSans-82"/>
       <use x="69.482422" xlink:href="#DejaVuSans-104"/>
       <use x="132.861328" xlink:href="#DejaVuSans-111"/>
       <use x="194.042969" xlink:href="#DejaVuSans-100"/>
       <use x="257.519531" xlink:href="#DejaVuSans-101"/>
       <use x="319.042969" xlink:href="#DejaVuSans-32"/>
       <use x="350.830078" xlink:href="#DejaVuSans-73"/>
       <use x="380.322266" xlink:href="#DejaVuSans-115"/>
       <use x="432.421875" xlink:href="#DejaVuSans-108"/>
       <use x="460.205078" xlink:href="#DejaVuSans-97"/>
       <use x="521.484375" xlink:href="#DejaVuSans-110"/>
       <use x="584.863281" xlink:href="#DejaVuSans-100"/>
      </g>
     </g>
    </g>
    <g id="xtick_44">
     <g id="line2d_44">
      <g>
       <use style="stroke:#000000;stroke-width:0.8;" x="1162.08" xlink:href="#m76091c3af3" y="352.8"/>
      </g>
     </g>
     <g id="text_44">
      <!-- Delaware -->
      <defs>
       <path d="M 19.671875 64.796875 
L 19.671875 8.109375 
L 31.59375 8.109375 
Q 46.6875 8.109375 53.6875 14.9375 
Q 60.6875 21.78125 60.6875 36.53125 
Q 60.6875 51.171875 53.6875 57.984375 
Q 46.6875 64.796875 31.59375 64.796875 
z
M 9.8125 72.90625 
L 30.078125 72.90625 
Q 51.265625 72.90625 61.171875 64.09375 
Q 71.09375 55.28125 71.09375 36.53125 
Q 71.09375 17.671875 61.125 8.828125 
Q 51.171875 0 30.078125 0 
L 9.8125 0 
z
" id="DejaVuSans-68"/>
      </defs>
      <g transform="translate(1120.157407 406.405408)rotate(-45)scale(0.12 -0.12)">
       <use xlink:href="#DejaVuSans-68"/>
       <use x="77.001953" xlink:href="#DejaVuSans-101"/>
       <use x="138.525391" xlink:href="#DejaVuSans-108"/>
       <use x="166.308594" xlink:href="#DejaVuSans-97"/>
       <use x="227.587891" xlink:href="#DejaVuSans-119"/>
       <use x="309.375" xlink:href="#DejaVuSans-97"/>
       <use x="370.654297" xlink:href="#DejaVuSans-114"/>
       <use x="411.736328" xlink:href="#DejaVuSans-101"/>
      </g>
     </g>
    </g>
    <g id="xtick_45">
     <g id="line2d_45">
      <g>
       <use style="stroke:#000000;stroke-width:0.8;" x="1184.4" xlink:href="#m76091c3af3" y="352.8"/>
      </g>
     </g>
     <g id="text_45">
      <!-- South Dakota -->
      <g transform="translate(1124.916852 423.965963)rotate(-45)scale(0.12 -0.12)">
       <use xlink:href="#DejaVuSans-83"/>
       <use x="63.476562" xlink:href="#DejaVuSans-111"/>
       <use x="124.658203" xlink:href="#DejaVuSans-117"/>
       <use x="188.037109" xlink:href="#DejaVuSans-116"/>
       <use x="227.246094" xlink:href="#DejaVuSans-104"/>
       <use x="290.625" xlink:href="#DejaVuSans-32"/>
       <use x="322.412109" xlink:href="#DejaVuSans-68"/>
       <use x="399.414062" xlink:href="#DejaVuSans-97"/>
       <use x="460.693359" xlink:href="#DejaVuSans-107"/>
       <use x="518.556641" xlink:href="#DejaVuSans-111"/>
       <use x="579.738281" xlink:href="#DejaVuSans-116"/>
       <use x="618.947266" xlink:href="#DejaVuSans-97"/>
      </g>
     </g>
    </g>
    <g id="xtick_46">
     <g id="line2d_46">
      <g>
       <use style="stroke:#000000;stroke-width:0.8;" x="1206.72" xlink:href="#m76091c3af3" y="352.8"/>
      </g>
     </g>
     <g id="text_46">
      <!-- North Dakota -->
      <g transform="translate(1148.164929 423.037885)rotate(-45)scale(0.12 -0.12)">
       <use xlink:href="#DejaVuSans-78"/>
       <use x="74.804688" xlink:href="#DejaVuSans-111"/>
       <use x="135.986328" xlink:href="#DejaVuSans-114"/>
       <use x="177.099609" xlink:href="#DejaVuSans-116"/>
       <use x="216.308594" xlink:href="#DejaVuSans-104"/>
       <use x="279.6875" xlink:href="#DejaVuSans-32"/>
       <use x="311.474609" xlink:href="#DejaVuSans-68"/>
       <use x="388.476562" xlink:href="#DejaVuSans-97"/>
       <use x="449.755859" xlink:href="#DejaVuSans-107"/>
       <use x="507.619141" xlink:href="#DejaVuSans-111"/>
       <use x="568.800781" xlink:href="#DejaVuSans-116"/>
       <use x="608.009766" xlink:href="#DejaVuSans-97"/>
      </g>
     </g>
    </g>
    <g id="xtick_47">
     <g id="line2d_47">
      <g>
       <use style="stroke:#000000;stroke-width:0.8;" x="1229.04" xlink:href="#m76091c3af3" y="352.8"/>
      </g>
     </g>
     <g id="text_47">
      <!-- Vermont -->
      <g transform="translate(1190.610956 402.911859)rotate(-45)scale(0.12 -0.12)">
       <use xlink:href="#DejaVuSans-86"/>
       <use x="68.298828" xlink:href="#DejaVuSans-101"/>
       <use x="129.822266" xlink:href="#DejaVuSans-114"/>
       <use x="170.919922" xlink:href="#DejaVuSans-109"/>
       <use x="268.332031" xlink:href="#DejaVuSans-111"/>
       <use x="329.513672" xlink:href="#DejaVuSans-110"/>
       <use x="392.892578" xlink:href="#DejaVuSans-116"/>
      </g>
     </g>
    </g>
    <g id="xtick_48">
     <g id="line2d_48">
      <g>
       <use style="stroke:#000000;stroke-width:0.8;" x="1251.36" xlink:href="#m76091c3af3" y="352.8"/>
      </g>
     </g>
     <g id="text_48">
      <!-- District of Columbia -->
      <g transform="translate(1165.486301 450.356514)rotate(-45)scale(0.12 -0.12)">
       <use xlink:href="#DejaVuSans-68"/>
       <use x="77.001953" xlink:href="#DejaVuSans-105"/>
       <use x="104.785156" xlink:href="#DejaVuSans-115"/>
       <use x="156.884766" xlink:href="#DejaVuSans-116"/>
       <use x="196.09375" xlink:href="#DejaVuSans-114"/>
       <use x="237.207031" xlink:href="#DejaVuSans-105"/>
       <use x="264.990234" xlink:href="#DejaVuSans-99"/>
       <use x="319.970703" xlink:href="#DejaVuSans-116"/>
       <use x="359.179688" xlink:href="#DejaVuSans-32"/>
       <use x="390.966797" xlink:href="#DejaVuSans-111"/>
       <use x="452.148438" xlink:href="#DejaVuSans-102"/>
       <use x="487.353516" xlink:href="#DejaVuSans-32"/>
       <use x="519.140625" xlink:href="#DejaVuSans-67"/>
       <use x="588.964844" xlink:href="#DejaVuSans-111"/>
       <use x="650.146484" xlink:href="#DejaVuSans-108"/>
       <use x="677.929688" xlink:href="#DejaVuSans-117"/>
       <use x="741.308594" xlink:href="#DejaVuSans-109"/>
       <use x="838.720703" xlink:href="#DejaVuSans-98"/>
       <use x="902.197266" xlink:href="#DejaVuSans-105"/>
       <use x="929.980469" xlink:href="#DejaVuSans-97"/>
      </g>
     </g>
    </g>
    <g id="xtick_49">
     <g id="line2d_49">
      <g>
       <use style="stroke:#000000;stroke-width:0.8;" x="1273.68" xlink:href="#m76091c3af3" y="352.8"/>
      </g>
     </g>
     <g id="text_49">
      <!-- Wyoming -->
      <g transform="translate(1231.925787 406.237028)rotate(-45)scale(0.12 -0.12)">
       <use xlink:href="#DejaVuSans-87"/>
       <use x="98.861328" xlink:href="#DejaVuSans-121"/>
       <use x="158.041016" xlink:href="#DejaVuSans-111"/>
       <use x="219.222656" xlink:href="#DejaVuSans-109"/>
       <use x="316.634766" xlink:href="#DejaVuSans-105"/>
       <use x="344.417969" xlink:href="#DejaVuSans-110"/>
       <use x="407.796875" xlink:href="#DejaVuSans-103"/>
      </g>
     </g>
    </g>
   </g>
   <g id="matplotlib.axis_2">
    <g id="ytick_1">
     <g id="line2d_50">
      <defs>
       <path d="M 0 0 
L -3.5 0 
" id="m65322b08a4" style="stroke:#000000;stroke-width:0.8;"/>
      </defs>
      <g>
       <use style="stroke:#000000;stroke-width:0.8;" x="180" xlink:href="#m65322b08a4" y="352.8"/>
      </g>
     </g>
     <g id="text_50">
      <!-- 0.00 -->
      <defs>
       <path d="M 31.78125 66.40625 
Q 24.171875 66.40625 20.328125 58.90625 
Q 16.5 51.421875 16.5 36.375 
Q 16.5 21.390625 20.328125 13.890625 
Q 24.171875 6.390625 31.78125 6.390625 
Q 39.453125 6.390625 43.28125 13.890625 
Q 47.125 21.390625 47.125 36.375 
Q 47.125 51.421875 43.28125 58.90625 
Q 39.453125 66.40625 31.78125 66.40625 
z
M 31.78125 74.21875 
Q 44.046875 74.21875 50.515625 64.515625 
Q 56.984375 54.828125 56.984375 36.375 
Q 56.984375 17.96875 50.515625 8.265625 
Q 44.046875 -1.421875 31.78125 -1.421875 
Q 19.53125 -1.421875 13.0625 8.265625 
Q 6.59375 17.96875 6.59375 36.375 
Q 6.59375 54.828125 13.0625 64.515625 
Q 19.53125 74.21875 31.78125 74.21875 
z
" id="DejaVuSans-48"/>
       <path d="M 10.6875 12.40625 
L 21 12.40625 
L 21 0 
L 10.6875 0 
z
" id="DejaVuSans-46"/>
      </defs>
      <g transform="translate(137.375 358.87875)scale(0.16 -0.16)">
       <use xlink:href="#DejaVuSans-48"/>
       <use x="63.623047" xlink:href="#DejaVuSans-46"/>
       <use x="95.410156" xlink:href="#DejaVuSans-48"/>
       <use x="159.033203" xlink:href="#DejaVuSans-48"/>
      </g>
     </g>
    </g>
    <g id="ytick_2">
     <g id="line2d_51">
      <g>
       <use style="stroke:#000000;stroke-width:0.8;" x="180" xlink:href="#m65322b08a4" y="304.08"/>
      </g>
     </g>
     <g id="text_51">
      <!-- 0.02 -->
      <defs>
       <path d="M 19.1875 8.296875 
L 53.609375 8.296875 
L 53.609375 0 
L 7.328125 0 
L 7.328125 8.296875 
Q 12.9375 14.109375 22.625 23.890625 
Q 32.328125 33.6875 34.8125 36.53125 
Q 39.546875 41.84375 41.421875 45.53125 
Q 43.3125 49.21875 43.3125 52.78125 
Q 43.3125 58.59375 39.234375 62.25 
Q 35.15625 65.921875 28.609375 65.921875 
Q 23.96875 65.921875 18.8125 64.3125 
Q 13.671875 62.703125 7.8125 59.421875 
L 7.8125 69.390625 
Q 13.765625 71.78125 18.9375 73 
Q 24.125 74.21875 28.421875 74.21875 
Q 39.75 74.21875 46.484375 68.546875 
Q 53.21875 62.890625 53.21875 53.421875 
Q 53.21875 48.921875 51.53125 44.890625 
Q 49.859375 40.875 45.40625 35.40625 
Q 44.1875 33.984375 37.640625 27.21875 
Q 31.109375 20.453125 19.1875 8.296875 
z
" id="DejaVuSans-50"/>
      </defs>
      <g transform="translate(137.375 310.15875)scale(0.16 -0.16)">
       <use xlink:href="#DejaVuSans-48"/>
       <use x="63.623047" xlink:href="#DejaVuSans-46"/>
       <use x="95.410156" xlink:href="#DejaVuSans-48"/>
       <use x="159.033203" xlink:href="#DejaVuSans-50"/>
      </g>
     </g>
    </g>
    <g id="ytick_3">
     <g id="line2d_52">
      <g>
       <use style="stroke:#000000;stroke-width:0.8;" x="180" xlink:href="#m65322b08a4" y="255.36"/>
      </g>
     </g>
     <g id="text_52">
      <!-- 0.04 -->
      <defs>
       <path d="M 37.796875 64.3125 
L 12.890625 25.390625 
L 37.796875 25.390625 
z
M 35.203125 72.90625 
L 47.609375 72.90625 
L 47.609375 25.390625 
L 58.015625 25.390625 
L 58.015625 17.1875 
L 47.609375 17.1875 
L 47.609375 0 
L 37.796875 0 
L 37.796875 17.1875 
L 4.890625 17.1875 
L 4.890625 26.703125 
z
" id="DejaVuSans-52"/>
      </defs>
      <g transform="translate(137.375 261.43875)scale(0.16 -0.16)">
       <use xlink:href="#DejaVuSans-48"/>
       <use x="63.623047" xlink:href="#DejaVuSans-46"/>
       <use x="95.410156" xlink:href="#DejaVuSans-48"/>
       <use x="159.033203" xlink:href="#DejaVuSans-52"/>
      </g>
     </g>
    </g>
    <g id="ytick_4">
     <g id="line2d_53">
      <g>
       <use style="stroke:#000000;stroke-width:0.8;" x="180" xlink:href="#m65322b08a4" y="206.64"/>
      </g>
     </g>
     <g id="text_53">
      <!-- 0.06 -->
      <defs>
       <path d="M 33.015625 40.375 
Q 26.375 40.375 22.484375 35.828125 
Q 18.609375 31.296875 18.609375 23.390625 
Q 18.609375 15.53125 22.484375 10.953125 
Q 26.375 6.390625 33.015625 6.390625 
Q 39.65625 6.390625 43.53125 10.953125 
Q 47.40625 15.53125 47.40625 23.390625 
Q 47.40625 31.296875 43.53125 35.828125 
Q 39.65625 40.375 33.015625 40.375 
z
M 52.59375 71.296875 
L 52.59375 62.3125 
Q 48.875 64.0625 45.09375 64.984375 
Q 41.3125 65.921875 37.59375 65.921875 
Q 27.828125 65.921875 22.671875 59.328125 
Q 17.53125 52.734375 16.796875 39.40625 
Q 19.671875 43.65625 24.015625 45.921875 
Q 28.375 48.1875 33.59375 48.1875 
Q 44.578125 48.1875 50.953125 41.515625 
Q 57.328125 34.859375 57.328125 23.390625 
Q 57.328125 12.15625 50.6875 5.359375 
Q 44.046875 -1.421875 33.015625 -1.421875 
Q 20.359375 -1.421875 13.671875 8.265625 
Q 6.984375 17.96875 6.984375 36.375 
Q 6.984375 53.65625 15.1875 63.9375 
Q 23.390625 74.21875 37.203125 74.21875 
Q 40.921875 74.21875 44.703125 73.484375 
Q 48.484375 72.75 52.59375 71.296875 
z
" id="DejaVuSans-54"/>
      </defs>
      <g transform="translate(137.375 212.71875)scale(0.16 -0.16)">
       <use xlink:href="#DejaVuSans-48"/>
       <use x="63.623047" xlink:href="#DejaVuSans-46"/>
       <use x="95.410156" xlink:href="#DejaVuSans-48"/>
       <use x="159.033203" xlink:href="#DejaVuSans-54"/>
      </g>
     </g>
    </g>
    <g id="ytick_5">
     <g id="line2d_54">
      <g>
       <use style="stroke:#000000;stroke-width:0.8;" x="180" xlink:href="#m65322b08a4" y="157.92"/>
      </g>
     </g>
     <g id="text_54">
      <!-- 0.08 -->
      <defs>
       <path d="M 31.78125 34.625 
Q 24.75 34.625 20.71875 30.859375 
Q 16.703125 27.09375 16.703125 20.515625 
Q 16.703125 13.921875 20.71875 10.15625 
Q 24.75 6.390625 31.78125 6.390625 
Q 38.8125 6.390625 42.859375 10.171875 
Q 46.921875 13.96875 46.921875 20.515625 
Q 46.921875 27.09375 42.890625 30.859375 
Q 38.875 34.625 31.78125 34.625 
z
M 21.921875 38.8125 
Q 15.578125 40.375 12.03125 44.71875 
Q 8.5 49.078125 8.5 55.328125 
Q 8.5 64.0625 14.71875 69.140625 
Q 20.953125 74.21875 31.78125 74.21875 
Q 42.671875 74.21875 48.875 69.140625 
Q 55.078125 64.0625 55.078125 55.328125 
Q 55.078125 49.078125 51.53125 44.71875 
Q 48 40.375 41.703125 38.8125 
Q 48.828125 37.15625 52.796875 32.3125 
Q 56.78125 27.484375 56.78125 20.515625 
Q 56.78125 9.90625 50.3125 4.234375 
Q 43.84375 -1.421875 31.78125 -1.421875 
Q 19.734375 -1.421875 13.25 4.234375 
Q 6.78125 9.90625 6.78125 20.515625 
Q 6.78125 27.484375 10.78125 32.3125 
Q 14.796875 37.15625 21.921875 38.8125 
z
M 18.3125 54.390625 
Q 18.3125 48.734375 21.84375 45.5625 
Q 25.390625 42.390625 31.78125 42.390625 
Q 38.140625 42.390625 41.71875 45.5625 
Q 45.3125 48.734375 45.3125 54.390625 
Q 45.3125 60.0625 41.71875 63.234375 
Q 38.140625 66.40625 31.78125 66.40625 
Q 25.390625 66.40625 21.84375 63.234375 
Q 18.3125 60.0625 18.3125 54.390625 
z
" id="DejaVuSans-56"/>
      </defs>
      <g transform="translate(137.375 163.99875)scale(0.16 -0.16)">
       <use xlink:href="#DejaVuSans-48"/>
       <use x="63.623047" xlink:href="#DejaVuSans-46"/>
       <use x="95.410156" xlink:href="#DejaVuSans-48"/>
       <use x="159.033203" xlink:href="#DejaVuSans-56"/>
      </g>
     </g>
    </g>
    <g id="ytick_6">
     <g id="line2d_55">
      <g>
       <use style="stroke:#000000;stroke-width:0.8;" x="180" xlink:href="#m65322b08a4" y="109.2"/>
      </g>
     </g>
     <g id="text_55">
      <!-- 0.10 -->
      <defs>
       <path d="M 12.40625 8.296875 
L 28.515625 8.296875 
L 28.515625 63.921875 
L 10.984375 60.40625 
L 10.984375 69.390625 
L 28.421875 72.90625 
L 38.28125 72.90625 
L 38.28125 8.296875 
L 54.390625 8.296875 
L 54.390625 0 
L 12.40625 0 
z
" id="DejaVuSans-49"/>
      </defs>
      <g transform="translate(137.375 115.27875)scale(0.16 -0.16)">
       <use xlink:href="#DejaVuSans-48"/>
       <use x="63.623047" xlink:href="#DejaVuSans-46"/>
       <use x="95.410156" xlink:href="#DejaVuSans-49"/>
       <use x="159.033203" xlink:href="#DejaVuSans-48"/>
      </g>
     </g>
    </g>
    <g id="ytick_7">
     <g id="line2d_56">
      <g>
       <use style="stroke:#000000;stroke-width:0.8;" x="180" xlink:href="#m65322b08a4" y="60.48"/>
      </g>
     </g>
     <g id="text_56">
      <!-- 0.12 -->
      <g transform="translate(137.375 66.55875)scale(0.16 -0.16)">
       <use xlink:href="#DejaVuSans-48"/>
       <use x="63.623047" xlink:href="#DejaVuSans-46"/>
       <use x="95.410156" xlink:href="#DejaVuSans-49"/>
       <use x="159.033203" xlink:href="#DejaVuSans-50"/>
      </g>
     </g>
    </g>
    <g id="text_57">
     <!-- Probability -->
     <g transform="translate(130.0475 249.2425)rotate(-90)scale(0.16 -0.16)">
      <use xlink:href="#DejaVuSans-80"/>
      <use x="60.287109" xlink:href="#DejaVuSans-114"/>
      <use x="101.369141" xlink:href="#DejaVuSans-111"/>
      <use x="162.550781" xlink:href="#DejaVuSans-98"/>
      <use x="226.027344" xlink:href="#DejaVuSans-97"/>
      <use x="287.306641" xlink:href="#DejaVuSans-98"/>
      <use x="350.783203" xlink:href="#DejaVuSans-105"/>
      <use x="378.566406" xlink:href="#DejaVuSans-108"/>
      <use x="406.349609" xlink:href="#DejaVuSans-105"/>
      <use x="434.132812" xlink:href="#DejaVuSans-116"/>
      <use x="473.341797" xlink:href="#DejaVuSans-121"/>
     </g>
    </g>
   </g>
   <g id="patch_52">
    <path d="M 180 352.8 
L 180 60.48 
" style="fill:none;stroke:#000000;stroke-linecap:square;stroke-linejoin:miter;stroke-width:0.8;"/>
   </g>
   <g id="patch_53">
    <path d="M 1296 352.8 
L 1296 60.48 
" style="fill:none;stroke:#000000;stroke-linecap:square;stroke-linejoin:miter;stroke-width:0.8;"/>
   </g>
   <g id="patch_54">
    <path d="M 180 352.8 
L 1296 352.8 
" style="fill:none;stroke:#000000;stroke-linecap:square;stroke-linejoin:miter;stroke-width:0.8;"/>
   </g>
   <g id="patch_55">
    <path d="M 180 60.48 
L 1296 60.48 
" style="fill:none;stroke:#000000;stroke-linecap:square;stroke-linejoin:miter;stroke-width:0.8;"/>
   </g>
   <g id="text_58">
    <!-- State unit count distribution -->
    <g transform="translate(603.0465 54.48)scale(0.192 -0.192)">
     <use xlink:href="#DejaVuSans-83"/>
     <use x="63.476562" xlink:href="#DejaVuSans-116"/>
     <use x="102.685547" xlink:href="#DejaVuSans-97"/>
     <use x="163.964844" xlink:href="#DejaVuSans-116"/>
     <use x="203.173828" xlink:href="#DejaVuSans-101"/>
     <use x="264.697266" xlink:href="#DejaVuSans-32"/>
     <use x="296.484375" xlink:href="#DejaVuSans-117"/>
     <use x="359.863281" xlink:href="#DejaVuSans-110"/>
     <use x="423.242188" xlink:href="#DejaVuSans-105"/>
     <use x="451.025391" xlink:href="#DejaVuSans-116"/>
     <use x="490.234375" xlink:href="#DejaVuSans-32"/>
     <use x="522.021484" xlink:href="#DejaVuSans-99"/>
     <use x="577.001953" xlink:href="#DejaVuSans-111"/>
     <use x="638.183594" xlink:href="#DejaVuSans-117"/>
     <use x="701.5625" xlink:href="#DejaVuSans-110"/>
     <use x="764.941406" xlink:href="#DejaVuSans-116"/>
     <use x="804.150391" xlink:href="#DejaVuSans-32"/>
     <use x="835.9375" xlink:href="#DejaVuSans-100"/>
     <use x="899.414062" xlink:href="#DejaVuSans-105"/>
     <use x="927.197266" xlink:href="#DejaVuSans-115"/>
     <use x="979.296875" xlink:href="#DejaVuSans-116"/>
     <use x="1018.505859" xlink:href="#DejaVuSans-114"/>
     <use x="1059.619141" xlink:href="#DejaVuSans-105"/>
     <use x="1087.402344" xlink:href="#DejaVuSans-98"/>
     <use x="1150.878906" xlink:href="#DejaVuSans-117"/>
     <use x="1214.257812" xlink:href="#DejaVuSans-116"/>
     <use x="1253.466797" xlink:href="#DejaVuSans-105"/>
     <use x="1281.25" xlink:href="#DejaVuSans-111"/>
     <use x="1342.431641" xlink:href="#DejaVuSans-110"/>
    </g>
   </g>
  </g>
 </g>
 <defs>
  <clipPath id="p845b27d3af">
   <rect height="292.32" width="1116" x="180" y="60.48"/>
  </clipPath>
 </defs>
</svg>
